<svg id="SvgjsSvg1083" xmlns="http://www.w3.org/2000/svg" version="1.1" xmlns:xlink="http://www.w3.org/1999/xlink" xmlns:svgjs="http://svgjs.com/svgjs" width="881.9375" height="625.5"><defs id="SvgjsDefs1084"><marker id="SvgjsMarker1109" markerWidth="20" markerHeight="12" refX="0" refY="6" viewBox="0 0 20 12" orient="auto" markerUnits="userSpaceOnUse" stroke-dasharray="0,0"><path id="SvgjsPath1110" d="M2 6L10 2L18 6L10 10L2 6 " fill="#ffffff" stroke="#323232" stroke-width="2"></path></marker><marker id="SvgjsMarker1123" markerWidth="16" markerHeight="16" refX="11" refY="8" viewBox="0 0 16 16" orient="auto" markerUnits="userSpaceOnUse" stroke-dasharray="0,0"><path id="SvgjsPath1124" d="M0 0L10 8L0 16 " fill="none" stroke="#323232" stroke-width="2"></path></marker><marker id="SvgjsMarker1127" markerWidth="20" markerHeight="12" refX="0" refY="6" viewBox="0 0 20 12" orient="auto" markerUnits="userSpaceOnUse" stroke-dasharray="0,0"><path id="SvgjsPath1128" d="M2 6L10 2L18 6L10 10L2 6 " fill="#ffffff" stroke="#323232" stroke-width="2"></path></marker><marker id="SvgjsMarker1163" markerWidth="14" markerHeight="12" refX="16" refY="6" viewBox="0 0 14 12" orient="auto" markerUnits="userSpaceOnUse" stroke-dasharray="0,0"><path id="SvgjsPath1164" d="M1 1L14 6L1 11L1 1 " fill="#ffffff" stroke="#323232" stroke-width="2"></path></marker></defs><g id="SvgjsG1085" transform="translate(212.28125,53)"><path id="SvgjsPath1086" d="M0 0L96 0L96 120L0 120Z " stroke="none" fill="none"></path><g id="SvgjsG1087"><text id="SvgjsText1088" font-family="微软雅黑" text-anchor="middle" font-size="13px" width="96px" fill="#323232" font-weight="400" align="middle" lineHeight="125%" font-style="" opacity="1" y="50.375" transform="rotate(0)"></text></g></g><g id="SvgjsG1089" transform="translate(367.28125,519.5)"><path id="SvgjsPath1090" d="M0 0L160 0L160 40L0 40Z " stroke="none" fill="none"></path><g id="SvgjsG1091"><text id="SvgjsText1092" font-family="微软雅黑" text-anchor="middle" font-size="13px" width="160px" fill="#323232" font-weight="400" align="middle" lineHeight="125%" font-style="" opacity="1" y="10.375" transform="rotate(0)"><tspan id="SvgjsTspan1093" dy="16" x="80"><tspan id="SvgjsTspan1094" style="text-decoration:;">1..*</tspan></tspan></text></g></g><g id="SvgjsG1095" transform="translate(539.9503321256038,511.5)"><path id="SvgjsPath1096" d="M0 4Q0 0 4 0L313.33091787439616 0Q317.33091787439616 0 317.33091787439616 4L317.33091787439616 61.5Q317.33091787439616 65.5 313.33091787439616 65.5L4 65.5Q0 65.5 0 61.5Z " stroke="rgba(50,50,50,1)" stroke-width="2" fill-opacity="1" fill="#ffffff"></path><path id="SvgjsPath1097" d="M0 30L317.33091787439616 30 " stroke="rgba(50,50,50,1)" stroke-width="2" fill="none"></path><path id="SvgjsPath1098" d="M0 0L317.33091787439616 0L317.33091787439616 65.5L0 65.5Z " stroke="none" fill="none"></path><g id="SvgjsG1099"><text id="SvgjsText1100" font-family="微软雅黑" text-anchor="middle" font-size="13px" width="298px" fill="#323232" font-weight="700" align="middle" lineHeight="125%" font-style="" opacity="1" y="5.375" transform="rotate(0)"><tspan id="SvgjsTspan1101" dy="16" x="159"><tspan id="SvgjsTspan1102" style="text-decoration:;">ApplicationListener</tspan></tspan></text></g><g id="SvgjsG1103"><text id="SvgjsText1104" font-family="微软雅黑" text-anchor="start" font-size="13px" width="298px" fill="#323232" font-weight="400" align="middle" lineHeight="125%" font-style="" opacity="1" y="38.125" transform="rotate(0)"><tspan id="SvgjsTspan1105" dy="16" x="10"><tspan id="SvgjsTspan1106" style="text-decoration:;">+onApplicationEvent(ApplicationEvent event)</tspan></tspan></text></g></g><g id="SvgjsG1107"><path id="SvgjsPath1108" d="M395.3428442028987 553.5C453.40031871044386 553.5 482.42661558117004 554.3416688345474 540.4840900887152 554.3416688345474 " stroke="#323232" stroke-width="2" fill="none" marker-start="url(#SvgjsMarker1109)"></path></g><g id="SvgjsG1111" transform="translate(565.9503321256038,179)"><path id="SvgjsPath1112" d="M0 4Q0 0 4 0L131 0Q135 0 135 4L135 85Q135 89 131 89L4 89Q0 89 0 85Z " stroke="rgba(50,50,50,1)" stroke-width="2" fill-opacity="1" fill="#ffffff"></path><path id="SvgjsPath1113" d="M0 30L135 30 " stroke="rgba(50,50,50,1)" stroke-width="2" fill="none"></path><path id="SvgjsPath1114" d="M0 0L135 0L135 89L0 89Z " stroke="none" fill="none"></path><g id="SvgjsG1115"><text id="SvgjsText1116" font-family="微软雅黑" text-anchor="middle" font-size="13px" width="115px" fill="#323232" font-weight="700" align="middle" lineHeight="125%" font-style="" opacity="1" y="5.375" transform="rotate(0)"><tspan id="SvgjsTspan1117" dy="16" x="67.5"><tspan id="SvgjsTspan1118" style="text-decoration:;">ApplicationEvent</tspan></tspan></text></g><g id="SvgjsG1119"><text id="SvgjsText1120" font-family="微软雅黑" text-anchor="start" font-size="13px" width="115px" fill="#323232" font-weight="400" align="middle" lineHeight="125%" font-style="" opacity="1" y="49.875" transform="rotate(0)"></text></g></g><g id="SvgjsG1121"><path id="SvgjsPath1122" d="M420.34163647343007 223.5L493.14598429951695 223.5L493.14598429951695 223.5L565.9503321256038 223.5 " stroke-dasharray="8,5" stroke="#323232" stroke-width="2" fill="none" marker-end="url(#SvgjsMarker1123)"></path></g><g id="SvgjsG1125"><path id="SvgjsPath1126" d="M222.6773852657006 269.5C222.67738526570062 364.29999999999995 222.67738526570062 411.70000000000005 222.6773852657006 506.5 " stroke="#323232" stroke-width="2" fill="none" marker-start="url(#SvgjsMarker1127)"></path></g><g id="SvgjsG1129" transform="translate(25.013134057971115,177.5)"><path id="SvgjsPath1130" d="M0 4Q0 0 4 0L391.32850241545896 0Q395.32850241545896 0 395.32850241545896 4L395.32850241545896 88Q395.32850241545896 92 391.32850241545896 92L4 92Q0 92 0 88Z " stroke="rgba(50,50,50,1)" stroke-width="2" fill-opacity="1" fill="#ffffff"></path><path id="SvgjsPath1131" d="M0 30L395.32850241545896 30M0 62L395.32850241545896 62 " stroke="rgba(50,50,50,1)" stroke-width="2" fill="none"></path><path id="SvgjsPath1132" d="M0 0L395.32850241545896 0L395.32850241545896 92L0 92Z " stroke="none" fill="none"></path><g id="SvgjsG1133"><text id="SvgjsText1134" font-family="微软雅黑" text-anchor="middle" font-size="13px" width="376px" fill="#323232" font-weight="700" align="middle" lineHeight="125%" font-style="" opacity="1" y="5.375" transform="rotate(0)"><tspan id="SvgjsTspan1135" dy="16" x="198"><tspan id="SvgjsTspan1136" style="text-decoration:;">ApplicationContext</tspan></tspan></text></g><g id="SvgjsG1137"><text id="SvgjsText1138" font-family="微软雅黑" text-anchor="start" font-size="13px" width="376px" fill="#323232" font-weight="400" align="middle" lineHeight="125%" font-style="" opacity="1" y="36.375" transform="rotate(0)"><tspan id="SvgjsTspan1139" dy="16" x="10"><tspan id="SvgjsTspan1140" style="text-decoration:;">-ApplicationEventMulticaster：ApplicationEventMulticaster</tspan></tspan></text></g><g id="SvgjsG1141"><text id="SvgjsText1142" font-family="微软雅黑" text-anchor="start" font-size="13px" width="376px" fill="#323232" font-weight="400" align="middle" lineHeight="125%" font-style="" opacity="1" y="67.375" transform="rotate(0)"><tspan id="SvgjsTspan1143" dy="16" x="10"><tspan id="SvgjsTspan1144" style="text-decoration:;">+publishEvent(ApplicationEvent event)</tspan></tspan></text></g></g><g id="SvgjsG1145" transform="translate(50.01192632850251,506.5)"><path id="SvgjsPath1146" d="M0 4Q0 0 4 0L341.33091787439616 0Q345.33091787439616 0 345.33091787439616 4L345.33091787439616 90Q345.33091787439616 94 341.33091787439616 94L4 94Q0 94 0 90Z " stroke="rgba(50,50,50,1)" stroke-width="2" fill-opacity="1" fill="#ffffff"></path><path id="SvgjsPath1147" d="M0 30L345.33091787439616 30M0 62L345.33091787439616 62 " stroke="rgba(50,50,50,1)" stroke-width="2" fill="none"></path><path id="SvgjsPath1148" d="M0 0L345.33091787439616 0L345.33091787439616 94L0 94Z " stroke="none" fill="none"></path><g id="SvgjsG1149"><text id="SvgjsText1150" font-family="微软雅黑" text-anchor="middle" font-size="13px" width="326px" fill="#323232" font-weight="700" align="middle" lineHeight="125%" font-style="" opacity="1" y="5.375" transform="rotate(0)"><tspan id="SvgjsTspan1151" dy="16" x="173"><tspan id="SvgjsTspan1152" style="text-decoration:;">ApplicationEventMulticaster</tspan></tspan></text></g><g id="SvgjsG1153"><text id="SvgjsText1154" font-family="微软雅黑" text-anchor="start" font-size="13px" width="326px" fill="#323232" font-weight="400" align="middle" lineHeight="125%" font-style="" opacity="1" y="35.375" transform="rotate(0)"><tspan id="SvgjsTspan1155" dy="16" x="10"><tspan id="SvgjsTspan1156" style="text-decoration:;">-Collection&lt;ApplicationListener&gt;：listeners</tspan></tspan></text></g><g id="SvgjsG1157"><text id="SvgjsText1158" font-family="微软雅黑" text-anchor="start" font-size="13px" width="326px" fill="#323232" font-weight="400" align="middle" lineHeight="125%" font-style="" opacity="1" y="67.375" transform="rotate(0)"><tspan id="SvgjsTspan1159" dy="16" x="10"><tspan id="SvgjsTspan1160" style="text-decoration:;">+multicastEvent(ApplicationEvent event)</tspan></tspan></text></g></g><g id="SvgjsG1161"><path id="SvgjsPath1162" d="M633.4503321256038 179L633.4503321256038 146.5L633.4503321256038 146.5L633.4503321256038 114 " stroke="#323232" stroke-width="2" fill="none" marker-end="url(#SvgjsMarker1163)"></path></g><g id="SvgjsG1165" transform="translate(565.9503321256038,25)"><path id="SvgjsPath1166" d="M0 4Q0 0 4 0L131 0Q135 0 135 4L135 85Q135 89 131 89L4 89Q0 89 0 85Z " stroke="rgba(50,50,50,1)" stroke-width="2" fill-opacity="1" fill="#ffffff"></path><path id="SvgjsPath1167" d="M0 30L135 30 " stroke="rgba(50,50,50,1)" stroke-width="2" fill="none"></path><path id="SvgjsPath1168" d="M0 0L135 0L135 89L0 89Z " stroke="none" fill="none"></path><g id="SvgjsG1169"><text id="SvgjsText1170" font-family="微软雅黑" text-anchor="middle" font-size="13px" width="115px" fill="#323232" font-weight="700" align="middle" lineHeight="125%" font-style="" opacity="1" y="5.375" transform="rotate(0)"><tspan id="SvgjsTspan1171" dy="16" x="67.5"><tspan id="SvgjsTspan1172" style="text-decoration:;">EventObject</tspan></tspan></text></g><g id="SvgjsG1173"><text id="SvgjsText1174" font-family="微软雅黑" text-anchor="start" font-size="13px" width="115px" fill="#323232" font-weight="400" align="middle" lineHeight="125%" font-style="" opacity="1" y="49.875" transform="rotate(0)"></text></g></g></svg>