<svg id="SvgjsSvg1312" xmlns="http://www.w3.org/2000/svg" version="1.1" xmlns:xlink="http://www.w3.org/1999/xlink" xmlns:svgjs="http://svgjs.com/svgjs" width="684" height="838"><defs id="SvgjsDefs1313"><marker id="SvgjsMarker1365" markerWidth="16" markerHeight="12" refX="10" refY="6" viewBox="0 0 16 12" orient="auto" markerUnits="userSpaceOnUse" stroke-dasharray="0,0"><path id="SvgjsPath1366" d="M0 3L10 6L0 9L0 3 " fill="#323232" stroke="#323232" stroke-width="1"></path></marker><marker id="SvgjsMarker1375" markerWidth="16" markerHeight="12" refX="10" refY="6" viewBox="0 0 16 12" orient="auto" markerUnits="userSpaceOnUse" stroke-dasharray="0,0"><path id="SvgjsPath1376" d="M0 3L10 6L0 9L0 3 " fill="#323232" stroke="#323232" stroke-width="1"></path></marker><marker id="SvgjsMarker1385" markerWidth="16" markerHeight="12" refX="10" refY="6" viewBox="0 0 16 12" orient="auto" markerUnits="userSpaceOnUse" stroke-dasharray="0,0"><path id="SvgjsPath1386" d="M0 3L10 6L0 9L0 3 " fill="#323232" stroke="#323232" stroke-width="1"></path></marker><marker id="SvgjsMarker1401" markerWidth="16" markerHeight="12" refX="10" refY="6" viewBox="0 0 16 12" orient="auto" markerUnits="userSpaceOnUse" stroke-dasharray="0,0"><path id="SvgjsPath1402" d="M0 3L10 6L0 9L0 3 " fill="#323232" stroke="#323232" stroke-width="1"></path></marker><marker id="SvgjsMarker1405" markerWidth="16" markerHeight="12" refX="16" refY="6" viewBox="0 0 16 12" orient="auto" markerUnits="userSpaceOnUse" stroke-dasharray="0,0"><path id="SvgjsPath1406" d="M0 2L14 6L0 11L0 2 " fill="#323232" stroke="#323232" stroke-width="2"></path></marker><marker id="SvgjsMarker1409" markerWidth="16" markerHeight="12" refX="16" refY="6" viewBox="0 0 16 12" orient="auto" markerUnits="userSpaceOnUse" stroke-dasharray="0,0"><path id="SvgjsPath1410" d="M0 2L14 6L0 11L0 2 " fill="#323232" stroke="#323232" stroke-width="2"></path></marker><marker id="SvgjsMarker1413" markerWidth="16" markerHeight="12" refX="16" refY="6" viewBox="0 0 16 12" orient="auto" markerUnits="userSpaceOnUse" stroke-dasharray="0,0"><path id="SvgjsPath1414" d="M0 2L14 6L0 11L0 2 " fill="#323232" stroke="#323232" stroke-width="2"></path></marker></defs><g id="svgbackgroundid"><defs></defs><rect id="SvgjsRect1315" width="684" height="838" fill="#ffffff"></rect></g><g id="SvgjsG1317" transform="translate(25,25)"><path id="SvgjsPath1318" d="M0 0L634 0L634 788L0 788Z " stroke="rgba(50,50,50,1)" stroke-width="1" fill="none"></path><path id="SvgjsPath1319" d="M0 0L634 0L634 40L0 40Z " stroke="rgba(50,50,50,1)" stroke-width="1" fill-opacity="1" fill="#496098"></path><g id="SvgjsG1320"><text id="SvgjsText1321" font-family="Arial" text-anchor="middle" font-size="16px" width="614px" fill="#ffffff" font-weight="700" align="middle" lineHeight="125%" font-style="" opacity="1" y="8" transform="rotate(0)"><tspan id="SvgjsTspan1322" dy="20" x="317"><tspan id="SvgjsTspan1323" style="text-decoration:;">利用MQ解耦不同系统的事务</tspan></tspan></text></g></g><g id="SvgjsG1324" transform="translate(25,65)"><path id="SvgjsPath1325" d="M0 0L195 0L195 748L0 748Z " stroke="rgba(50,50,50,1)" stroke-width="1" fill="none"></path><path id="SvgjsPath1326" d="M0 0L195 0L195 30L0 30Z " stroke="rgba(50,50,50,1)" stroke-width="1" fill-opacity="1" fill="#c2ddfc"></path><g id="SvgjsG1327"><text id="SvgjsText1328" font-family="Arial" text-anchor="middle" font-size="13px" width="175px" fill="#323232" font-weight="700" align="middle" lineHeight="125%" font-style="" opacity="1" y="5.375" transform="rotate(0)"><tspan id="SvgjsTspan1329" dy="16" x="97.5"><tspan id="SvgjsTspan1330" style="text-decoration:;">ServiceA</tspan></tspan></text></g></g><g id="SvgjsG1331" transform="translate(220,65)"><path id="SvgjsPath1332" d="M0 0L210 0L210 748L0 748Z " stroke="rgba(50,50,50,1)" stroke-width="1" fill="none"></path><path id="SvgjsPath1333" d="M0 0L210 0L210 30L0 30Z " stroke="rgba(50,50,50,1)" stroke-width="1" fill-opacity="1" fill="#eb5976"></path><g id="SvgjsG1334"><text id="SvgjsText1335" font-family="Arial" text-anchor="middle" font-size="13px" width="190px" fill="#ffffff" font-weight="700" align="middle" lineHeight="125%" font-style="" opacity="1" y="5.375" transform="rotate(0)"><tspan id="SvgjsTspan1336" dy="16" x="105"><tspan id="SvgjsTspan1337" style="text-decoration:;">消息系统</tspan></tspan></text></g></g><g id="SvgjsG1338" transform="translate(430,65)"><path id="SvgjsPath1339" d="M0 0L229 0L229 748L0 748Z " stroke="rgba(50,50,50,1)" stroke-width="1" fill="none"></path><path id="SvgjsPath1340" d="M0 0L229 0L229 30L0 30Z " stroke="rgba(50,50,50,1)" stroke-width="1" fill-opacity="1" fill="#c2ddfc"></path><g id="SvgjsG1341"><text id="SvgjsText1342" font-family="Arial" text-anchor="middle" font-size="13px" width="209px" fill="#323232" font-weight="700" align="middle" lineHeight="125%" font-style="" opacity="1" y="5.375" transform="rotate(0)"><tspan id="SvgjsTspan1343" dy="16" x="114.5"><tspan id="SvgjsTspan1344" style="text-decoration:;">ServiceB</tspan></tspan></text></g></g><g id="SvgjsG1345" transform="translate(503,487.29999999999995)"><path id="SvgjsPath1346" d="M0 0L100 0L100 43L0 43Z " stroke="rgba(50,50,50,1)" stroke-width="1" fill-opacity="1" fill="#ffffff"></path><g id="SvgjsG1347"><text id="SvgjsText1348" font-family="Arial" text-anchor="middle" font-size="13px" width="80px" fill="#323232" font-weight="400" align="middle" lineHeight="125%" font-style="" opacity="1" y="11.875" transform="rotate(0)"><tspan id="SvgjsTspan1349" dy="16" x="50"><tspan id="SvgjsTspan1350" style="text-decoration:;">执行本地事务</tspan></tspan></text></g></g><g id="SvgjsG1351" transform="translate(250,365.04999999999995)"><path id="SvgjsPath1352" d="M0 0L135 0L135 49.30000000000001L0 49.30000000000001Z " stroke="rgba(50,50,50,1)" stroke-width="1" fill-opacity="1" fill="#ffffff"></path><g id="SvgjsG1353"><text id="SvgjsText1354" font-family="Arial" text-anchor="middle" font-size="13px" width="115px" fill="#323232" font-weight="400" align="middle" lineHeight="125%" font-style="" opacity="1" y="15.025000000000006" transform="rotate(0)"><tspan id="SvgjsTspan1355" dy="16" x="67.5"><tspan id="SvgjsTspan1356" style="text-decoration:;">接收MQ</tspan></tspan></text></g></g><g id="SvgjsG1357" transform="translate(65.5,128)"><path id="SvgjsPath1358" d="M15 0L85 0C105 0 105 45 85 45L15 45C-5 45 -5 0 15 0Z " stroke="rgba(50,50,50,1)" stroke-width="1" fill-opacity="1" fill="#eb5976"></path><g id="SvgjsG1359"><text id="SvgjsText1360" font-family="Arial" text-anchor="middle" font-size="13px" width="80px" fill="#ffffff" font-weight="400" align="middle" lineHeight="125%" font-style="" opacity="1" y="12.875" transform="rotate(0)"><tspan id="SvgjsTspan1361" dy="16" x="50"><tspan id="SvgjsTspan1362" style="text-decoration:;">开启本地事务</tspan></tspan></text></g></g><g id="SvgjsG1363"><path id="SvgjsPath1364" d="M115.5 173L115.5 211.25L115.5 211.25L115.5 249.5 " stroke="#323232" stroke-width="1" fill="none" marker-end="url(#SvgjsMarker1365)"></path></g><g id="SvgjsG1367" transform="translate(65.5,249.5)"><path id="SvgjsPath1368" d="M0 0L100 0L100 43L0 43Z " stroke="rgba(50,50,50,1)" stroke-width="1" fill-opacity="1" fill="#ffffff"></path><g id="SvgjsG1369"><text id="SvgjsText1370" font-family="Arial" text-anchor="middle" font-size="13px" width="80px" fill="#323232" font-weight="400" align="middle" lineHeight="125%" font-style="" opacity="1" y="11.875" transform="rotate(0)"><tspan id="SvgjsTspan1371" dy="16" x="50"><tspan id="SvgjsTspan1372" style="text-decoration:;">执行业务逻辑</tspan></tspan></text></g></g><g id="SvgjsG1373"><path id="SvgjsPath1374" d="M115.5 292.5L115.5 330.35L115.5 330.35L115.5 368.2 " stroke="#323232" stroke-width="1" fill="none" marker-end="url(#SvgjsMarker1375)"></path></g><g id="SvgjsG1377" transform="translate(65.5,368.2)"><path id="SvgjsPath1378" d="M0 0L100 0L100 43L0 43Z " stroke="rgba(50,50,50,1)" stroke-width="1" fill-opacity="1" fill="#ffffff"></path><g id="SvgjsG1379"><text id="SvgjsText1380" font-family="Arial" text-anchor="middle" font-size="13px" width="80px" fill="#323232" font-weight="400" align="middle" lineHeight="125%" font-style="" opacity="1" y="11.875" transform="rotate(0)"><tspan id="SvgjsTspan1381" dy="16" x="50"><tspan id="SvgjsTspan1382" style="text-decoration:;">发送mq</tspan></tspan></text></g></g><g id="SvgjsG1383"><path id="SvgjsPath1384" d="M115.5 411.2L115.5 449.25L115.5 449.25L115.5 487.29999999999995 " stroke="#323232" stroke-width="1" fill="none" marker-end="url(#SvgjsMarker1385)"></path></g><g id="SvgjsG1387" transform="translate(65.5,487.29999999999995)"><path id="SvgjsPath1388" d="M0 0L100 0L100 43L0 43Z " stroke="rgba(50,50,50,1)" stroke-width="1" fill-opacity="1" fill="#ffffff"></path><g id="SvgjsG1389"><text id="SvgjsText1390" font-family="Arial" text-anchor="middle" font-size="13px" width="80px" fill="#323232" font-weight="400" align="middle" lineHeight="125%" font-style="" opacity="1" y="11.875" transform="rotate(0)"><tspan id="SvgjsTspan1391" dy="16" x="50"><tspan id="SvgjsTspan1392" style="text-decoration:;">本地事务提交</tspan></tspan></text></g></g><g id="SvgjsG1393" transform="translate(484.5,366.54999999999995)"><path id="SvgjsPath1394" d="M0 0L137 0L137 46.30000000000001L0 46.30000000000001Z " stroke="rgba(50,50,50,1)" stroke-width="1" fill-opacity="1" fill="#ffffff"></path><g id="SvgjsG1395"><text id="SvgjsText1396" font-family="Arial" text-anchor="middle" font-size="13px" width="117px" fill="#323232" font-weight="400" align="middle" lineHeight="125%" font-style="" opacity="1" y="13.525000000000006" transform="rotate(0)"><tspan id="SvgjsTspan1397" dy="16" x="68.5"><tspan id="SvgjsTspan1398" style="text-decoration:;">获取到消息</tspan></tspan></text></g></g><g id="SvgjsG1399"><path id="SvgjsPath1400" d="M553 412.84999999999997L553 450.07499999999993L553 450.07499999999993L553 487.29999999999995 " stroke="#323232" stroke-width="1" fill="none" marker-end="url(#SvgjsMarker1401)"></path></g><g id="SvgjsG1403"><path id="SvgjsPath1404" d="M165.5 389.7L207.75 389.7L207.75 389.7L250 389.7 " stroke="#323232" stroke-width="2" fill="none" marker-end="url(#SvgjsMarker1405)"></path></g><g id="SvgjsG1407"><path id="SvgjsPath1408" d="M484.5 389.7L434.75 389.7L434.75 389.7L385 389.7 " stroke="#323232" stroke-width="2" fill="none" marker-end="url(#SvgjsMarker1409)"></path></g><g id="SvgjsG1411"><path id="SvgjsPath1412" d="M553 530.3L553 551.65L553 551.65L553 573 " stroke="#323232" stroke-width="2" fill="none" marker-end="url(#SvgjsMarker1413)"></path></g><g id="SvgjsG1415" transform="translate(503,573)"><path id="SvgjsPath1416" d="M0 0L100 0L100 47L0 47Z " stroke="rgba(50,50,50,1)" stroke-width="2" fill-opacity="1" fill="#ffffff"></path><g id="SvgjsG1417"><text id="SvgjsText1418" font-family="微软雅黑" text-anchor="middle" font-size="13px" width="80px" fill="#323232" font-weight="400" align="middle" lineHeight="125%" font-style="" opacity="1" y="13.875" transform="rotate(0)"><tspan id="SvgjsTspan1419" dy="16" x="50"><tspan id="SvgjsTspan1420" style="text-decoration:;">提交本地事务</tspan></tspan></text></g></g></svg>