<svg id="SvgjsSvg1000" xmlns="http://www.w3.org/2000/svg" version="1.1" xmlns:xlink="http://www.w3.org/1999/xlink" xmlns:svgjs="http://svgjs.com/svgjs" width="693.4375" height="744"><defs id="SvgjsDefs1001"><marker id="SvgjsMarker1038" markerWidth="16" markerHeight="12" refX="16" refY="6" viewBox="0 0 16 12" orient="auto" markerUnits="userSpaceOnUse" stroke-dasharray="0,0"><path id="SvgjsPath1039" d="M0 2L14 6L0 11L0 2 " fill="#323232" stroke="#323232" stroke-width="2"></path></marker><marker id="SvgjsMarker1046" markerWidth="16" markerHeight="12" refX="16" refY="6" viewBox="0 0 16 12" orient="auto" markerUnits="userSpaceOnUse" stroke-dasharray="0,0"><path id="SvgjsPath1047" d="M0 2L14 6L0 11L0 2 " fill="#323232" stroke="#323232" stroke-width="2"></path></marker><marker id="SvgjsMarker1054" markerWidth="16" markerHeight="12" refX="16" refY="6" viewBox="0 0 16 12" orient="auto" markerUnits="userSpaceOnUse" stroke-dasharray="0,0"><path id="SvgjsPath1055" d="M0 2L14 6L0 11L0 2 " fill="#323232" stroke="#323232" stroke-width="2"></path></marker><marker id="SvgjsMarker1062" markerWidth="16" markerHeight="12" refX="16" refY="6" viewBox="0 0 16 12" orient="auto" markerUnits="userSpaceOnUse" stroke-dasharray="0,0"><path id="SvgjsPath1063" d="M0 2L14 6L0 11L0 2 " fill="#323232" stroke="#323232" stroke-width="2"></path></marker><marker id="SvgjsMarker1070" markerWidth="16" markerHeight="12" refX="16" refY="6" viewBox="0 0 16 12" orient="auto" markerUnits="userSpaceOnUse" stroke-dasharray="0,0"><path id="SvgjsPath1071" d="M0 2L14 6L0 11L0 2 " fill="#323232" stroke="#323232" stroke-width="2"></path></marker><marker id="SvgjsMarker1078" markerWidth="16" markerHeight="12" refX="16" refY="6" viewBox="0 0 16 12" orient="auto" markerUnits="userSpaceOnUse" stroke-dasharray="0,0"><path id="SvgjsPath1079" d="M0 2L14 6L0 11L0 2 " fill="#323232" stroke="#323232" stroke-width="2"></path></marker></defs><g id="svgbackgroundid"><defs></defs><rect id="SvgjsRect1008" width="693.4375" height="744" fill="#ffffff"></rect></g><g id="SvgjsG1010" transform="translate(25.00463528103299,25.009843614366304)"><path id="SvgjsPath1011" d="M55.68518235948349 30L55.68518235948349 694.0370313856337 " stroke-dasharray="3,4" stroke="rgba(50,50,50,1)" stroke-width="2" fill="none"></path><path id="SvgjsPath1012" d="M0 0L111.37036471896698 0L111.37036471896698 30L0 30Z " stroke="rgba(50,50,50,1)" stroke-width="2" fill-opacity="1" fill="#ffffff"></path><g id="SvgjsG1013"><text id="SvgjsText1014" font-family="微软雅黑" text-anchor="middle" font-size="13px" width="92px" fill="#323232" font-weight="400" align="middle" lineHeight="125%" font-style="" opacity="1" y="5.375" transform="rotate(0)"><tspan id="SvgjsTspan1015" dy="16" x="56"><tspan id="SvgjsTspan1016" style="text-decoration:;">协调者</tspan></tspan></text></g></g><g id="SvgjsG1017" transform="translate(556.4404126913146,25.009843614366304)"><path id="SvgjsPath1018" d="M56.15744361505358 30L56.15744361505358 694.0370313856336 " stroke-dasharray="3,4" stroke="rgba(50,50,50,1)" stroke-width="2" fill="none"></path><path id="SvgjsPath1019" d="M0 0L112.31488723010716 0L112.31488723010716 30L0 30Z " stroke="rgba(50,50,50,1)" stroke-width="2" fill-opacity="1" fill="#ffffff"></path><g id="SvgjsG1020"><text id="SvgjsText1021" font-family="微软雅黑" text-anchor="middle" font-size="13px" width="93px" fill="#323232" font-weight="400" align="middle" lineHeight="125%" font-style="" opacity="1" y="5.375" transform="rotate(0)"><tspan id="SvgjsTspan1022" dy="16" x="56.5"><tspan id="SvgjsTspan1023" style="text-decoration:;">参与者</tspan></tspan></text></g></g><g id="SvgjsG1024" transform="translate(65.68981764051648,100.046875)"><path id="SvgjsPath1025" d="M0 4Q0 0 4 0L26 0Q30 0 30 4L30 107.62963528103302Q30 111.62963528103302 26 111.62963528103302L4 111.62963528103302Q0 111.62963528103302 0 107.62963528103302L0 4Z " stroke="rgba(50,50,50,1)" stroke-width="2" fill-opacity="1" fill="#ffffff"></path></g><g id="SvgjsG1026" transform="translate(597.6692291156016,89.18190971844717)"><path id="SvgjsPath1027" d="M0 4Q0 0 4 0L25.857254381533043 0Q29.857254381533043 0 29.857254381533043 4L29.857254381533043 108.42452350157237Q29.857254381533043 112.42452350157237 25.857254381533043 112.42452350157237L4 112.42452350157237Q0 112.42452350157237 0 108.42452350157237L0 4Z " stroke="rgba(50,50,50,1)" stroke-width="2" fill-opacity="1" fill="#ffffff"></path></g><g id="SvgjsG1028" transform="translate(597.6692291156016,319.0468750000001)"><path id="SvgjsPath1029" d="M0 4Q0 0 4 0L25.857254381533043 0Q29.857254381533043 0 29.857254381533043 4L29.857254381533043 114.1605114910833Q29.857254381533043 118.1605114910833 25.857254381533043 118.1605114910833L4 118.1605114910833Q0 118.1605114910833 0 114.1605114910833L0 4Z " stroke="rgba(50,50,50,1)" stroke-width="2" fill-opacity="1" fill="#ffffff"></path></g><g id="SvgjsG1030" transform="translate(597.6692291156016,521.046875)"><path id="SvgjsPath1031" d="M0 4Q0 0 4 0L25.857254381533043 0Q29.857254381533043 0 29.857254381533043 4L29.857254381533043 97Q29.857254381533043 101 25.857254381533043 101L4 101Q0 101 0 97L0 4Z " stroke="rgba(50,50,50,1)" stroke-width="2" fill-opacity="1" fill="#ffffff"></path></g><g id="SvgjsG1032" transform="translate(65.68981764051648,525.9116096598009)"><path id="SvgjsPath1033" d="M0 4Q0 0 4 0L26 0Q30 0 30 4L30 96Q30 100 26 100L4 100Q0 100 0 96L0 4Z " stroke="rgba(50,50,50,1)" stroke-width="2" fill-opacity="1" fill="#ffffff"></path></g><g id="SvgjsG1034" transform="translate(65.68981764051648,319.046875)"><path id="SvgjsPath1035" d="M0 4Q0 0 4 0L26 0Q30 0 30 4L30 114.16051149108341Q30 118.16051149108341 26 118.16051149108341L4 118.16051149108341Q0 118.16051149108341 0 114.16051149108341L0 4Z " stroke="rgba(50,50,50,1)" stroke-width="2" fill-opacity="1" fill="#ffffff"></path></g><g id="SvgjsG1036"><path id="SvgjsPath1037" d="M95.06872771481326 103.27443297281837C293.3830741717418 68.3062630308959 397.0619896454514 95.046875 598.4356545565461 95.046875 " stroke="#323232" stroke-width="2" fill="none" marker-end="url(#SvgjsMarker1038)"></path><rect id="SvgjsRect1040" width="71" height="16" x="310.10494671536736" y="78.04759025818827" fill="#ffffff"></rect><text id="SvgjsText1041" font-family="微软雅黑" text-anchor="middle" font-size="13px" width="71px" fill="#323232" font-weight="400" align="top" lineHeight="16px" font-style="" opacity="1" y="76.42259025818827" transform="rotate(0)"><tspan id="SvgjsTspan1042" dy="16" x="345.60494671536736"><tspan id="SvgjsTspan1043" style="text-decoration:;">CanCommit</tspan></tspan></text></g><g id="SvgjsG1044"><path id="SvgjsPath1045" d="M598.1944250396897 193.67879442669732C393.375 213.046875 314.375 201.046875 95.20407311149216 205.3630777862275 " stroke="#323232" stroke-width="2" fill="none" marker-end="url(#SvgjsMarker1046)"></path><rect id="SvgjsRect1048" width="27" height="16" x="338.5810622688977" y="197.1653902766156" fill="#ffffff"></rect><text id="SvgjsText1049" font-family="微软雅黑" text-anchor="middle" font-size="13px" width="27px" fill="#323232" font-weight="400" align="top" lineHeight="16px" font-style="" opacity="1" y="195.5403902766156" transform="rotate(0)"><tspan id="SvgjsTspan1050" dy="16" x="352.0810622688977"><tspan id="SvgjsTspan1051" style="text-decoration:;">ACK</tspan></tspan></text></g><g id="SvgjsG1052"><path id="SvgjsPath1053" d="M95.375 338.046875C296.59448215816485 338.046875 397.15551784183515 331.046875 598.375 331.046875 " stroke="#323232" stroke-width="2" fill="none" marker-end="url(#SvgjsMarker1054)"></path><rect id="SvgjsRect1056" width="68" height="16" x="312.875" y="326.546875" fill="#ffffff"></rect><text id="SvgjsText1057" font-family="微软雅黑" text-anchor="middle" font-size="13px" width="68px" fill="#323232" font-weight="400" align="top" lineHeight="16px" font-style="" opacity="1" y="324.921875" transform="rotate(0)"><tspan id="SvgjsTspan1058" dy="16" x="346.875"><tspan id="SvgjsTspan1059" style="text-decoration:;">PreCommit</tspan></tspan></text></g><g id="SvgjsG1060"><path id="SvgjsPath1061" d="M598.375 425.046875C397.16505988768847 425.046875 296.58494011231153 420.0468750000001 95.375 420.046875 " stroke="#323232" stroke-width="2" fill="none" marker-end="url(#SvgjsMarker1062)"></path><rect id="SvgjsRect1064" width="27" height="16" x="333.375" y="414.54687500000006" fill="#ffffff"></rect><text id="SvgjsText1065" font-family="微软雅黑" text-anchor="middle" font-size="13px" width="27px" fill="#323232" font-weight="400" align="top" lineHeight="16px" font-style="" opacity="1" y="412.92187500000006" transform="rotate(0)"><tspan id="SvgjsTspan1066" dy="16" x="346.875"><tspan id="SvgjsTspan1067" style="text-decoration:;">ACK</tspan></tspan></text></g><g id="SvgjsG1068"><path id="SvgjsPath1069" d="M95.375 540.046875C296.5785784970039 540.046875 397.17142150299605 537.046875 598.375 537.046875 " stroke="#323232" stroke-width="2" fill="none" marker-end="url(#SvgjsMarker1070)"></path><rect id="SvgjsRect1072" width="64" height="16" x="314.875" y="530.546875" fill="#ffffff"></rect><text id="SvgjsText1073" font-family="微软雅黑" text-anchor="middle" font-size="13px" width="64px" fill="#323232" font-weight="400" align="top" lineHeight="16px" font-style="" opacity="1" y="528.921875" transform="rotate(0)"><tspan id="SvgjsTspan1074" dy="16" x="346.875"><tspan id="SvgjsTspan1075" style="text-decoration:;">DoCommit</tspan></tspan></text></g><g id="SvgjsG1076"><path id="SvgjsPath1077" d="M598.375 597.046875C397.1078143983724 597.046875 296.6421856016276 610.0468750000001 95.375 610.046875 " stroke="#323232" stroke-width="2" fill="none" marker-end="url(#SvgjsMarker1078)"></path><rect id="SvgjsRect1080" width="27" height="16" x="333.375" y="595.546875" fill="#ffffff"></rect><text id="SvgjsText1081" font-family="微软雅黑" text-anchor="middle" font-size="13px" width="27px" fill="#323232" font-weight="400" align="top" lineHeight="16px" font-style="" opacity="1" y="593.921875" transform="rotate(0)"><tspan id="SvgjsTspan1082" dy="16" x="346.875"><tspan id="SvgjsTspan1083" style="text-decoration:;">ACK</tspan></tspan></text></g></svg>