<svg id="SvgjsSvg1281" xmlns="http://www.w3.org/2000/svg" version="1.1" xmlns:xlink="http://www.w3.org/1999/xlink" xmlns:svgjs="http://svgjs.com/svgjs" width="881.9375" height="753"><defs id="SvgjsDefs1282"><marker id="SvgjsMarker1307" markerWidth="20" markerHeight="12" refX="0" refY="6" viewBox="0 0 20 12" orient="auto" markerUnits="userSpaceOnUse" stroke-dasharray="0,0"><path id="SvgjsPath1308" d="M2 6L10 2L18 6L10 10L2 6 " fill="#ffffff" stroke="#323232" stroke-width="2"></path></marker><marker id="SvgjsMarker1321" markerWidth="16" markerHeight="16" refX="11" refY="8" viewBox="0 0 16 16" orient="auto" markerUnits="userSpaceOnUse" stroke-dasharray="0,0"><path id="SvgjsPath1322" d="M0 0L10 8L0 16 " fill="none" stroke="#323232" stroke-width="2"></path></marker><marker id="SvgjsMarker1325" markerWidth="20" markerHeight="12" refX="0" refY="6" viewBox="0 0 20 12" orient="auto" markerUnits="userSpaceOnUse" stroke-dasharray="0,0"><path id="SvgjsPath1326" d="M2 6L10 2L18 6L10 10L2 6 " fill="#ffffff" stroke="#323232" stroke-width="2"></path></marker><marker id="SvgjsMarker1361" markerWidth="14" markerHeight="12" refX="16" refY="6" viewBox="0 0 14 12" orient="auto" markerUnits="userSpaceOnUse" stroke-dasharray="0,0"><path id="SvgjsPath1362" d="M1 1L14 6L1 11L1 1 " fill="#ffffff" stroke="#323232" stroke-width="2"></path></marker><marker id="SvgjsMarker1365" markerWidth="14" markerHeight="12" refX="16" refY="6" viewBox="0 0 14 12" orient="auto" markerUnits="userSpaceOnUse" stroke-dasharray="0,0"><path id="SvgjsPath1366" d="M1 1L14 6L1 11L1 1 " fill="#ffffff" stroke="#323232" stroke-width="2"></path></marker></defs><g id="SvgjsG1283" transform="translate(212.28125,35)"><path id="SvgjsPath1284" d="M0 0L96 0L96 120L0 120Z " stroke="none" fill="none"></path><g id="SvgjsG1285"><text id="SvgjsText1286" font-family="微软雅黑" text-anchor="middle" font-size="13px" width="96px" fill="#323232" font-weight="400" align="middle" lineHeight="125%" font-style="" opacity="1" y="50.375" transform="rotate(0)"></text></g></g><g id="SvgjsG1287" transform="translate(367.28125,501.5)"><path id="SvgjsPath1288" d="M0 0L160 0L160 40L0 40Z " stroke="none" fill="none"></path><g id="SvgjsG1289"><text id="SvgjsText1290" font-family="微软雅黑" text-anchor="middle" font-size="13px" width="160px" fill="#323232" font-weight="400" align="middle" lineHeight="125%" font-style="" opacity="1" y="10.375" transform="rotate(0)"><tspan id="SvgjsTspan1291" dy="16" x="80"><tspan id="SvgjsTspan1292" style="text-decoration:;">1..*</tspan></tspan></text></g></g><g id="SvgjsG1293" transform="translate(539.9503321256038,493.5)"><path id="SvgjsPath1294" d="M0 4Q0 0 4 0L313.33091787439616 0Q317.33091787439616 0 317.33091787439616 4L317.33091787439616 61.5Q317.33091787439616 65.5 313.33091787439616 65.5L4 65.5Q0 65.5 0 61.5Z " stroke="rgba(50,50,50,1)" stroke-width="2" fill-opacity="1" fill="#ffffff"></path><path id="SvgjsPath1295" d="M0 30L317.33091787439616 30 " stroke="rgba(50,50,50,1)" stroke-width="2" fill="none"></path><path id="SvgjsPath1296" d="M0 0L317.33091787439616 0L317.33091787439616 65.5L0 65.5Z " stroke="none" fill="none"></path><g id="SvgjsG1297"><text id="SvgjsText1298" font-family="微软雅黑" text-anchor="middle" font-size="13px" width="298px" fill="#323232" font-weight="700" align="middle" lineHeight="125%" font-style="" opacity="1" y="5.375" transform="rotate(0)"><tspan id="SvgjsTspan1299" dy="16" x="159"><tspan id="SvgjsTspan1300" style="text-decoration:;">ApplicationListener</tspan></tspan></text></g><g id="SvgjsG1301"><text id="SvgjsText1302" font-family="微软雅黑" text-anchor="start" font-size="13px" width="298px" fill="#323232" font-weight="400" align="middle" lineHeight="125%" font-style="" opacity="1" y="38.125" transform="rotate(0)"><tspan id="SvgjsTspan1303" dy="16" x="10"><tspan id="SvgjsTspan1304" style="text-decoration:;">+onApplicationEvent(ApplicationEvent event)</tspan></tspan></text></g></g><g id="SvgjsG1305"><path id="SvgjsPath1306" d="M395.3428442028987 535.5C453.40031871044386 535.5 482.42661558117004 536.3416688345474 540.4840900887152 536.3416688345474 " stroke="#323232" stroke-width="2" fill="none" marker-start="url(#SvgjsMarker1307)"></path></g><g id="SvgjsG1309" transform="translate(565.9503321256038,161)"><path id="SvgjsPath1310" d="M0 4Q0 0 4 0L131 0Q135 0 135 4L135 85Q135 89 131 89L4 89Q0 89 0 85Z " stroke="rgba(50,50,50,1)" stroke-width="2" fill-opacity="1" fill="#ffffff"></path><path id="SvgjsPath1311" d="M0 30L135 30 " stroke="rgba(50,50,50,1)" stroke-width="2" fill="none"></path><path id="SvgjsPath1312" d="M0 0L135 0L135 89L0 89Z " stroke="none" fill="none"></path><g id="SvgjsG1313"><text id="SvgjsText1314" font-family="微软雅黑" text-anchor="middle" font-size="13px" width="115px" fill="#323232" font-weight="700" align="middle" lineHeight="125%" font-style="" opacity="1" y="5.375" transform="rotate(0)"><tspan id="SvgjsTspan1315" dy="16" x="67.5"><tspan id="SvgjsTspan1316" style="text-decoration:;">ApplicationEvent</tspan></tspan></text></g><g id="SvgjsG1317"><text id="SvgjsText1318" font-family="微软雅黑" text-anchor="start" font-size="13px" width="115px" fill="#323232" font-weight="400" align="middle" lineHeight="125%" font-style="" opacity="1" y="49.875" transform="rotate(0)"></text></g></g><g id="SvgjsG1319"><path id="SvgjsPath1320" d="M420.34163647343007 205.5L493.14598429951695 205.5L493.14598429951695 205.5L565.9503321256038 205.5 " stroke-dasharray="8,5" stroke="#323232" stroke-width="2" fill="none" marker-end="url(#SvgjsMarker1321)"></path></g><g id="SvgjsG1323"><path id="SvgjsPath1324" d="M222.6773852657006 251.5C222.67738526570062 346.29999999999995 222.67738526570062 393.70000000000005 222.6773852657006 488.5 " stroke="#323232" stroke-width="2" fill="none" marker-start="url(#SvgjsMarker1325)"></path></g><g id="SvgjsG1327" transform="translate(25.013134057971115,159.5)"><path id="SvgjsPath1328" d="M0 4Q0 0 4 0L391.32850241545896 0Q395.32850241545896 0 395.32850241545896 4L395.32850241545896 88Q395.32850241545896 92 391.32850241545896 92L4 92Q0 92 0 88Z " stroke="rgba(50,50,50,1)" stroke-width="2" fill-opacity="1" fill="#ffffff"></path><path id="SvgjsPath1329" d="M0 30L395.32850241545896 30M0 62L395.32850241545896 62 " stroke="rgba(50,50,50,1)" stroke-width="2" fill="none"></path><path id="SvgjsPath1330" d="M0 0L395.32850241545896 0L395.32850241545896 92L0 92Z " stroke="none" fill="none"></path><g id="SvgjsG1331"><text id="SvgjsText1332" font-family="微软雅黑" text-anchor="middle" font-size="13px" width="376px" fill="#323232" font-weight="700" align="middle" lineHeight="125%" font-style="" opacity="1" y="5.375" transform="rotate(0)"><tspan id="SvgjsTspan1333" dy="16" x="198"><tspan id="SvgjsTspan1334" style="text-decoration:;">ApplicationContext</tspan></tspan></text></g><g id="SvgjsG1335"><text id="SvgjsText1336" font-family="微软雅黑" text-anchor="start" font-size="13px" width="376px" fill="#323232" font-weight="400" align="middle" lineHeight="125%" font-style="" opacity="1" y="36.375" transform="rotate(0)"><tspan id="SvgjsTspan1337" dy="16" x="10"><tspan id="SvgjsTspan1338" style="text-decoration:;">-ApplicationEventMulticaster：ApplicationEventMulticaster</tspan></tspan></text></g><g id="SvgjsG1339"><text id="SvgjsText1340" font-family="微软雅黑" text-anchor="start" font-size="13px" width="376px" fill="#323232" font-weight="400" align="middle" lineHeight="125%" font-style="" opacity="1" y="67.375" transform="rotate(0)"><tspan id="SvgjsTspan1341" dy="16" x="10"><tspan id="SvgjsTspan1342" style="text-decoration:;">+publishEvent(ApplicationEvent event)</tspan></tspan></text></g></g><g id="SvgjsG1343" transform="translate(50.01192632850251,488.5)"><path id="SvgjsPath1344" d="M0 4Q0 0 4 0L341.33091787439616 0Q345.33091787439616 0 345.33091787439616 4L345.33091787439616 90Q345.33091787439616 94 341.33091787439616 94L4 94Q0 94 0 90Z " stroke="rgba(50,50,50,1)" stroke-width="2" fill-opacity="1" fill="#ffffff"></path><path id="SvgjsPath1345" d="M0 30L345.33091787439616 30M0 62L345.33091787439616 62 " stroke="rgba(50,50,50,1)" stroke-width="2" fill="none"></path><path id="SvgjsPath1346" d="M0 0L345.33091787439616 0L345.33091787439616 94L0 94Z " stroke="none" fill="none"></path><g id="SvgjsG1347"><text id="SvgjsText1348" font-family="微软雅黑" text-anchor="middle" font-size="13px" width="326px" fill="#323232" font-weight="700" align="middle" lineHeight="125%" font-style="" opacity="1" y="5.375" transform="rotate(0)"><tspan id="SvgjsTspan1349" dy="16" x="173"><tspan id="SvgjsTspan1350" style="text-decoration:;">ApplicationEventMulticaster</tspan></tspan></text></g><g id="SvgjsG1351"><text id="SvgjsText1352" font-family="微软雅黑" text-anchor="start" font-size="13px" width="326px" fill="#323232" font-weight="400" align="middle" lineHeight="125%" font-style="" opacity="1" y="35.375" transform="rotate(0)"><tspan id="SvgjsTspan1353" dy="16" x="10"><tspan id="SvgjsTspan1354" style="text-decoration:;">-Collection&lt;ApplicationListener&gt;：listeners</tspan></tspan></text></g><g id="SvgjsG1355"><text id="SvgjsText1356" font-family="微软雅黑" text-anchor="start" font-size="13px" width="326px" fill="#323232" font-weight="400" align="middle" lineHeight="125%" font-style="" opacity="1" y="67.375" transform="rotate(0)"><tspan id="SvgjsTspan1357" dy="16" x="10"><tspan id="SvgjsTspan1358" style="text-decoration:;">+multicastEvent(ApplicationEvent event)</tspan></tspan></text></g></g><g id="SvgjsG1359"><path id="SvgjsPath1360" d="M633.4503321256038 161L633.4503321256038 130.25L633.4503321256038 130.25L633.4503321256038 99.5 " stroke-dasharray="8,5" stroke="#323232" stroke-width="2" fill="none" marker-end="url(#SvgjsMarker1361)"></path></g><g id="SvgjsG1363"><path id="SvgjsPath1364" d="M698.6157910628019 559L698.6157910628019 599L698.6157910628019 599L698.6157910628019 639 " stroke-dasharray="8,5" stroke="#323232" stroke-width="2" fill="none" marker-end="url(#SvgjsMarker1365)"></path></g><g id="SvgjsG1367" transform="translate(631.1157910628019,639)"><path id="SvgjsPath1368" d="M0 4Q0 0 4 0L131 0Q135 0 135 4L135 85Q135 89 131 89L4 89Q0 89 0 85Z " stroke="rgba(50,50,50,1)" stroke-width="2" fill-opacity="1" fill="#ffffff"></path><path id="SvgjsPath1369" d="M0 30L135 30 " stroke="rgba(50,50,50,1)" stroke-width="2" fill="none"></path><path id="SvgjsPath1370" d="M0 0L135 0L135 89L0 89Z " stroke="none" fill="none"></path><g id="SvgjsG1371"><text id="SvgjsText1372" font-family="微软雅黑" text-anchor="middle" font-size="13px" width="115px" fill="#323232" font-weight="700" align="middle" lineHeight="125%" font-style="" opacity="1" y="5.375" transform="rotate(0)"><tspan id="SvgjsTspan1373" dy="16" x="67.5"><tspan id="SvgjsTspan1374" style="text-decoration:;">EventListener</tspan></tspan></text></g><g id="SvgjsG1375"><text id="SvgjsText1376" font-family="微软雅黑" text-anchor="start" font-size="13px" width="115px" fill="#323232" font-weight="400" align="middle" lineHeight="125%" font-style="" opacity="1" y="49.875" transform="rotate(0)"></text></g></g><g id="SvgjsG1377" transform="translate(567.8162741545893,25)"><path id="SvgjsPath1378" d="M0 4Q0 0 4 0L127.26811594202889 0Q131.26811594202889 0 131.26811594202889 4L131.26811594202889 70.5Q131.26811594202889 74.5 127.26811594202889 74.5L4 74.5Q0 74.5 0 70.5Z " stroke="rgba(50,50,50,1)" stroke-width="2" fill-opacity="1" fill="#ffffff"></path><path id="SvgjsPath1379" d="M0 30L131.26811594202889 30M0 62L131.26811594202889 62 " stroke="rgba(50,50,50,1)" stroke-width="2" fill="none"></path><path id="SvgjsPath1380" d="M0 0L131.26811594202889 0L131.26811594202889 74.5L0 74.5Z " stroke="none" fill="none"></path><g id="SvgjsG1381"><text id="SvgjsText1382" font-family="微软雅黑" text-anchor="middle" font-size="13px" width="112px" fill="#323232" font-weight="700" align="middle" lineHeight="125%" font-style="" opacity="1" y="5.375" transform="rotate(0)"><tspan id="SvgjsTspan1383" dy="16" x="66"><tspan id="SvgjsTspan1384" style="text-decoration:;">EventObject</tspan></tspan></text></g><g id="SvgjsG1385"><text id="SvgjsText1386" font-family="微软雅黑" text-anchor="start" font-size="13px" width="112px" fill="#323232" font-weight="400" align="middle" lineHeight="125%" font-style="" opacity="1" y="35.375" transform="rotate(0)"><tspan id="SvgjsTspan1387" dy="16" x="10"><tspan id="SvgjsTspan1388" style="text-decoration:;">-Object：source</tspan></tspan></text></g><g id="SvgjsG1389"><text id="SvgjsText1390" font-family="微软雅黑" text-anchor="start" font-size="13px" width="112px" fill="#323232" font-weight="400" align="middle" lineHeight="125%" font-style="" opacity="1" y="67.375" transform="rotate(0)"><tspan id="SvgjsTspan1391" dy="16" x="10"><tspan id="SvgjsTspan1392" style="text-decoration:;"> </tspan></tspan></text></g></g></svg>