<svg id="SvgjsSvg1221" xmlns="http://www.w3.org/2000/svg" version="1.1" xmlns:xlink="http://www.w3.org/1999/xlink" xmlns:svgjs="http://svgjs.com/svgjs" width="1137" height="342"><defs id="SvgjsDefs1222"><marker id="SvgjsMarker1251" markerWidth="16" markerHeight="12" refX="16" refY="6" viewBox="0 0 16 12" orient="auto" markerUnits="userSpaceOnUse" stroke-dasharray="0,0"><path id="SvgjsPath1252" d="M0 2L14 6L0 11L0 2 " fill="#323232" stroke="#323232" stroke-width="2"></path></marker><marker id="SvgjsMarker1271" markerWidth="16" markerHeight="12" refX="16" refY="6" viewBox="0 0 16 12" orient="auto" markerUnits="userSpaceOnUse" stroke-dasharray="0,0"><path id="SvgjsPath1272" d="M0 2L14 6L0 11L0 2 " fill="#323232" stroke="#323232" stroke-width="2"></path></marker><marker id="SvgjsMarker1283" markerWidth="16" markerHeight="12" refX="16" refY="6" viewBox="0 0 16 12" orient="auto" markerUnits="userSpaceOnUse" stroke-dasharray="0,0"><path id="SvgjsPath1284" d="M0 2L14 6L0 11L0 2 " fill="#323232" stroke="#323232" stroke-width="2"></path></marker><marker id="SvgjsMarker1287" markerWidth="16" markerHeight="12" refX="16" refY="6" viewBox="0 0 16 12" orient="auto" markerUnits="userSpaceOnUse" stroke-dasharray="0,0"><path id="SvgjsPath1288" d="M0 2L14 6L0 11L0 2 " fill="#323232" stroke="#323232" stroke-width="2"></path></marker><marker id="SvgjsMarker1313" markerWidth="16" markerHeight="12" refX="16" refY="6" viewBox="0 0 16 12" orient="auto" markerUnits="userSpaceOnUse" stroke-dasharray="0,0"><path id="SvgjsPath1314" d="M0 2L14 6L0 11L0 2 " fill="#323232" stroke="#323232" stroke-width="2"></path></marker><marker id="SvgjsMarker1317" markerWidth="16" markerHeight="12" refX="16" refY="6" viewBox="0 0 16 12" orient="auto" markerUnits="userSpaceOnUse" stroke-dasharray="0,0"><path id="SvgjsPath1318" d="M0 2L14 6L0 11L0 2 " fill="#323232" stroke="#323232" stroke-width="2"></path></marker><marker id="SvgjsMarker1321" markerWidth="16" markerHeight="12" refX="16" refY="6" viewBox="0 0 16 12" orient="auto" markerUnits="userSpaceOnUse" stroke-dasharray="0,0"><path id="SvgjsPath1322" d="M0 2L14 6L0 11L0 2 " fill="#323232" stroke="#323232" stroke-width="2"></path></marker><marker id="SvgjsMarker1335" markerWidth="16" markerHeight="12" refX="16" refY="6" viewBox="0 0 16 12" orient="auto" markerUnits="userSpaceOnUse" stroke-dasharray="0,0"><path id="SvgjsPath1336" d="M0 2L14 6L0 11L0 2 " fill="#323232" stroke="#323232" stroke-width="2"></path></marker><marker id="SvgjsMarker1339" markerWidth="16" markerHeight="12" refX="16" refY="6" viewBox="0 0 16 12" orient="auto" markerUnits="userSpaceOnUse" stroke-dasharray="0,0"><path id="SvgjsPath1340" d="M0 2L14 6L0 11L0 2 " fill="#323232" stroke="#323232" stroke-width="2"></path></marker></defs><g id="SvgjsG1223" transform="translate(25,25)"><path id="SvgjsPath1224" d="M0 4Q0 0 4 0L314 0Q318 0 318 4L318 288Q318 292 314 292L4 292Q0 292 0 288Z " stroke="rgba(50,50,50,1)" stroke-width="2" fill-opacity="1" fill="#ffffff"></path><g id="SvgjsG1225"><text id="SvgjsText1226" font-family="微软雅黑" text-anchor="middle" font-size="13px" width="298px" fill="#323232" font-weight="400" align="top" lineHeight="125%" font-style="" opacity="1" y="-1.625" transform="rotate(0)"><tspan id="SvgjsTspan1227" dy="16" x="159"><tspan id="SvgjsTspan1228" style="text-decoration:;">ServiceA</tspan></tspan></text></g></g><g id="SvgjsG1229" transform="translate(35,159)"><path id="SvgjsPath1230" d="M15 0L88.33333333333333 0C103.18181818181819 0 103.18181818181819 70 88.33333333333333 70L15 70C-5 70 -5 0 15 0ZM88.33333333333333 0C73.75 0 73.75 70 88.33333333333333 70C73.75 70 73.75 0 88.33333333333333 0 " stroke="rgba(50,50,50,1)" stroke-width="2" fill-opacity="1" fill="#ffffff"></path><g id="SvgjsG1231"><text id="SvgjsText1232" font-family="微软雅黑" text-anchor="middle" font-size="13px" width="80px" fill="#323232" font-weight="400" align="middle" lineHeight="125%" font-style="" opacity="1" y="25.375" transform="rotate(0)"><tspan id="SvgjsTspan1233" dy="16" x="40"><tspan id="SvgjsTspan1234" style="text-decoration:;">DB-A</tspan></tspan></text></g></g><g id="SvgjsG1235" transform="translate(499.5,105)"><path id="SvgjsPath1236" d="M0 4Q0 0 4 0L113.5 0Q117.5 0 117.5 4L117.5 160Q117.5 164 113.5 164L4 164Q0 164 0 160Z " stroke="rgba(50,50,50,1)" stroke-width="2" fill-opacity="1" fill="#ffffff"></path><g id="SvgjsG1237"><text id="SvgjsText1238" font-family="微软雅黑" text-anchor="middle" font-size="13px" width="98px" fill="#323232" font-weight="400" align="middle" lineHeight="125%" font-style="" opacity="1" y="64.375" transform="rotate(0)"><tspan id="SvgjsTspan1239" dy="16" x="59"><tspan id="SvgjsTspan1240" style="text-decoration:;">RocketMQ</tspan></tspan><tspan id="SvgjsTspan1241" dy="16" x="59"><tspan id="SvgjsTspan1242" style="text-decoration:;">Broker</tspan></tspan></text></g></g><g id="SvgjsG1243" transform="translate(791,100)"><path id="SvgjsPath1244" d="M0 4Q0 0 4 0L317 0Q321 0 321 4L321 160Q321 164 317 164L4 164Q0 164 0 160Z " stroke="rgba(50,50,50,1)" stroke-width="2" fill-opacity="1" fill="#ffffff"></path><g id="SvgjsG1245"><text id="SvgjsText1246" font-family="微软雅黑" text-anchor="middle" font-size="13px" width="301px" fill="#323232" font-weight="400" align="top" lineHeight="125%" font-style="" opacity="1" y="-1.625" transform="rotate(0)"><tspan id="SvgjsTspan1247" dy="16" x="160.5"><tspan id="SvgjsTspan1248" style="text-decoration:;">ServiceB</tspan></tspan></text></g></g><g id="SvgjsG1249"><path id="SvgjsPath1250" d="M314.5 136C388.50620265469854 136 425.49379734530146 133.60465116279067 499.5 133.60465116279067 " stroke="#323232" stroke-width="2" fill="none" marker-end="url(#SvgjsMarker1251)"></path><rect id="SvgjsRect1253" width="65" height="16" x="374.5" y="126.80232558139534" fill="#ffffff"></rect><text id="SvgjsText1254" font-family="微软雅黑" text-anchor="middle" font-size="13px" width="65px" fill="#323232" font-weight="400" align="top" lineHeight="16px" font-style="" opacity="1" y="125.17732558139534" transform="rotate(0)"><tspan id="SvgjsTspan1255" dy="16" x="407"><tspan id="SvgjsTspan1256" style="text-decoration:;">发送半消息</tspan></tspan></text></g><g id="SvgjsG1257" transform="translate(226.5,117)"><path id="SvgjsPath1258" d="M0 0L88 0L88 38L0 38Z " stroke="rgba(102,102,102,1)" stroke-width="2" fill-opacity="1" fill="#ffffff"></path><g id="SvgjsG1259"><text id="SvgjsText1260" font-family="Arial" text-anchor="middle" font-size="11px" width="68px" fill="#000000" font-weight="400" align="middle" lineHeight="125%" font-style="" opacity="1" y="11.125" transform="rotate(0)"><tspan id="SvgjsTspan1261" dy="13" x="44"><tspan id="SvgjsTspan1262" style="text-decoration:;">发送半消息</tspan></tspan></text></g></g><g id="SvgjsG1263" transform="translate(226.5,191)"><path id="SvgjsPath1264" d="M0 0L88 0L88 38L0 38Z " stroke="rgba(102,102,102,1)" stroke-width="2" fill-opacity="1" fill="#ffffff"></path><g id="SvgjsG1265"><text id="SvgjsText1266" font-family="Arial" text-anchor="middle" font-size="11px" width="68px" fill="#000000" font-weight="400" align="middle" lineHeight="125%" font-style="" opacity="1" y="11.125" transform="rotate(0)"><tspan id="SvgjsTspan1267" dy="13" x="44"><tspan id="SvgjsTspan1268" style="text-decoration:;">执行本地事务</tspan></tspan></text></g></g><g id="SvgjsG1269"><path id="SvgjsPath1270" d="M226.5 210C189.34465045245838 210 172.15534954754162 194 135 194 " stroke="#323232" stroke-width="2" fill="none" marker-end="url(#SvgjsMarker1271)"></path></g><g id="SvgjsG1273" transform="translate(226.5,264)"><path id="SvgjsPath1274" d="M0 0L88 0L88 38L0 38Z " stroke="rgba(102,102,102,1)" stroke-width="2" fill-opacity="1" fill="#ffffff"></path><g id="SvgjsG1275"><text id="SvgjsText1276" font-family="Arial" text-anchor="middle" font-size="11px" width="68px" fill="#000000" font-weight="400" align="middle" lineHeight="125%" font-style="" opacity="1" y="4.625" transform="rotate(0)"><tspan id="SvgjsTspan1277" dy="13" x="44"><tspan id="SvgjsTspan1278" style="text-decoration:;">本地事务提交</tspan></tspan><tspan id="SvgjsTspan1279" dy="13" x="44"><tspan id="SvgjsTspan1280" style="text-decoration:;">或回滚</tspan></tspan></text></g></g><g id="SvgjsG1281"><path id="SvgjsPath1282" d="M270.5 229C270.5 243 270.5 250 270.5 264 " stroke="#323232" stroke-width="2" fill="none" marker-end="url(#SvgjsMarker1283)"></path></g><g id="SvgjsG1285"><path id="SvgjsPath1286" d="M314.5 283C390.5234821825366 283 423.4765178174634 239.4418604651163 499.5 239.4418604651163 " stroke="#323232" stroke-width="2" fill="none" marker-end="url(#SvgjsMarker1287)"></path><rect id="SvgjsRect1289" width="104" height="16" x="355" y="253.22093023255815" fill="#ffffff"></rect><text id="SvgjsText1290" font-family="微软雅黑" text-anchor="middle" font-size="13px" width="104px" fill="#323232" font-weight="400" align="top" lineHeight="16px" font-style="" opacity="1" y="251.59593023255815" transform="rotate(0)"><tspan id="SvgjsTspan1291" dy="16" x="407"><tspan id="SvgjsTspan1292" style="text-decoration:;">提交或回滚半消息</tspan></tspan></text></g><g id="SvgjsG1293" transform="translate(800.5,128)"><path id="SvgjsPath1294" d="M0 0L88 0L88 38L0 38Z " stroke="rgba(102,102,102,1)" stroke-width="2" fill-opacity="1" fill="#ffffff"></path><g id="SvgjsG1295"><text id="SvgjsText1296" font-family="Arial" text-anchor="middle" font-size="11px" width="68px" fill="#000000" font-weight="400" align="middle" lineHeight="125%" font-style="" opacity="1" y="11.125" transform="rotate(0)"><tspan id="SvgjsTspan1297" dy="13" x="44"><tspan id="SvgjsTspan1298" style="text-decoration:;">获取事务消息</tspan></tspan></text></g></g><g id="SvgjsG1299" transform="translate(989,147)"><path id="SvgjsPath1300" d="M15 0L88.33333333333333 0C103.18181818181819 0 103.18181818181819 70 88.33333333333333 70L15 70C-5 70 -5 0 15 0ZM88.33333333333333 0C73.75 0 73.75 70 88.33333333333333 70C73.75 70 73.75 0 88.33333333333333 0 " stroke="rgba(50,50,50,1)" stroke-width="2" fill-opacity="1" fill="#ffffff"></path><g id="SvgjsG1301"><text id="SvgjsText1302" font-family="微软雅黑" text-anchor="middle" font-size="13px" width="80px" fill="#323232" font-weight="400" align="middle" lineHeight="125%" font-style="" opacity="1" y="25.375" transform="rotate(0)"><tspan id="SvgjsTspan1303" dy="16" x="40"><tspan id="SvgjsTspan1304" style="text-decoration:;">DB-B</tspan></tspan></text></g></g><g id="SvgjsG1305" transform="translate(800.5,191)"><path id="SvgjsPath1306" d="M0 0L88 0L88 38L0 38Z " stroke="rgba(102,102,102,1)" stroke-width="2" fill-opacity="1" fill="#ffffff"></path><g id="SvgjsG1307"><text id="SvgjsText1308" font-family="Arial" text-anchor="middle" font-size="11px" width="68px" fill="#000000" font-weight="400" align="middle" lineHeight="125%" font-style="" opacity="1" y="11.125" transform="rotate(0)"><tspan id="SvgjsTspan1309" dy="13" x="44"><tspan id="SvgjsTspan1310" style="text-decoration:;">执行本地事务</tspan></tspan></text></g></g><g id="SvgjsG1311"><path id="SvgjsPath1312" d="M888.5 210C930.2310436006578 210 947.2689563993422 182 989 182 " stroke="#323232" stroke-width="2" fill="none" marker-end="url(#SvgjsMarker1313)"></path></g><g id="SvgjsG1315"><path id="SvgjsPath1316" d="M844.5 166C844.5 176 844.5 181 844.5 191 " stroke="#323232" stroke-width="2" fill="none" marker-end="url(#SvgjsMarker1317)"></path></g><g id="SvgjsG1319"><path id="SvgjsPath1320" d="M617 187C692.1236314351216 187 725.3763685648784 147 800.5 147 " stroke="#323232" stroke-width="2" fill="none" marker-end="url(#SvgjsMarker1321)"></path><rect id="SvgjsRect1323" width="110" height="16" x="653.75" y="159" fill="#ffffff"></rect><text id="SvgjsText1324" font-family="微软雅黑" text-anchor="middle" font-size="13px" width="110px" fill="#323232" font-weight="400" align="top" lineHeight="16px" font-style="" opacity="1" y="157.375" transform="rotate(0)"><tspan id="SvgjsTspan1325" dy="16" x="708.75"><tspan id="SvgjsTspan1326" style="text-decoration:;">commit，投递消息</tspan></tspan></text></g><g id="SvgjsG1327" transform="translate(226.5,39)"><path id="SvgjsPath1328" d="M0 0L88 0L88 38L0 38Z " stroke="rgba(102,102,102,1)" stroke-width="2" fill-opacity="1" fill="#ffffff"></path><g id="SvgjsG1329"><text id="SvgjsText1330" font-family="Arial" text-anchor="middle" font-size="11px" width="68px" fill="#000000" font-weight="400" align="middle" lineHeight="125%" font-style="" opacity="1" y="11.125" transform="rotate(0)"><tspan id="SvgjsTspan1331" dy="13" x="44"><tspan id="SvgjsTspan1332" style="text-decoration:;">开启事务</tspan></tspan></text></g></g><g id="SvgjsG1333"><path id="SvgjsPath1334" d="M270.5 77C270.5 93 270.5 101 270.5 117 " stroke="#323232" stroke-width="2" fill="none" marker-end="url(#SvgjsMarker1335)"></path></g><g id="SvgjsG1337"><path id="SvgjsPath1338" d="M270.5 155C270.5 169.39999999999998 270.5 176.60000000000002 270.5 191 " stroke="#323232" stroke-width="2" fill="none" marker-end="url(#SvgjsMarker1339)"></path></g></svg>