<svg id="SvgjsSvg1000" xmlns="http://www.w3.org/2000/svg" version="1.1" xmlns:xlink="http://www.w3.org/1999/xlink" xmlns:svgjs="http://svgjs.com/svgjs" width="881.9375" height="597.5"><defs id="SvgjsDefs1001"><marker id="SvgjsMarker1031" markerWidth="20" markerHeight="12" refX="0" refY="6" viewBox="0 0 20 12" orient="auto" markerUnits="userSpaceOnUse" stroke-dasharray="0,0"><path id="SvgjsPath1032" d="M2 6L10 2L18 6L10 10L2 6 " fill="#ffffff" stroke="#323232" stroke-width="2"></path></marker><marker id="SvgjsMarker1045" markerWidth="16" markerHeight="16" refX="11" refY="8" viewBox="0 0 16 16" orient="auto" markerUnits="userSpaceOnUse" stroke-dasharray="0,0"><path id="SvgjsPath1046" d="M0 0L10 8L0 16 " fill="none" stroke="#323232" stroke-width="2"></path></marker><marker id="SvgjsMarker1049" markerWidth="20" markerHeight="12" refX="0" refY="6" viewBox="0 0 20 12" orient="auto" markerUnits="userSpaceOnUse" stroke-dasharray="0,0"><path id="SvgjsPath1050" d="M2 6L10 2L18 6L10 10L2 6 " fill="#ffffff" stroke="#323232" stroke-width="2"></path></marker></defs><g id="SvgjsG1007" transform="translate(212.28125,25)"><path id="SvgjsPath1008" d="M0 0L96 0L96 120L0 120Z " stroke="none" fill="none"></path><g id="SvgjsG1009"><text id="SvgjsText1010" font-family="微软雅黑" text-anchor="middle" font-size="13px" width="96px" fill="#323232" font-weight="400" align="middle" lineHeight="125%" font-style="" opacity="1" y="50.375" transform="rotate(0)"></text></g></g><g id="SvgjsG1011" transform="translate(367.28125,491.5)"><path id="SvgjsPath1012" d="M0 0L160 0L160 40L0 40Z " stroke="none" fill="none"></path><g id="SvgjsG1013"><text id="SvgjsText1014" font-family="微软雅黑" text-anchor="middle" font-size="13px" width="160px" fill="#323232" font-weight="400" align="middle" lineHeight="125%" font-style="" opacity="1" y="10.375" transform="rotate(0)"><tspan id="SvgjsTspan1015" dy="16" x="80"><tspan id="SvgjsTspan1016" style="text-decoration:;">1..*</tspan></tspan></text></g></g><g id="SvgjsG1017" transform="translate(539.9503321256038,483.5)"><path id="SvgjsPath1018" d="M0 4Q0 0 4 0L313.33091787439616 0Q317.33091787439616 0 317.33091787439616 4L317.33091787439616 61.5Q317.33091787439616 65.5 313.33091787439616 65.5L4 65.5Q0 65.5 0 61.5Z " stroke="rgba(50,50,50,1)" stroke-width="2" fill-opacity="1" fill="#ffffff"></path><path id="SvgjsPath1019" d="M0 30L317.33091787439616 30 " stroke="rgba(50,50,50,1)" stroke-width="2" fill="none"></path><path id="SvgjsPath1020" d="M0 0L317.33091787439616 0L317.33091787439616 65.5L0 65.5Z " stroke="none" fill="none"></path><g id="SvgjsG1021"><text id="SvgjsText1022" font-family="微软雅黑" text-anchor="middle" font-size="13px" width="298px" fill="#323232" font-weight="700" align="middle" lineHeight="125%" font-style="" opacity="1" y="5.375" transform="rotate(0)"><tspan id="SvgjsTspan1023" dy="16" x="159"><tspan id="SvgjsTspan1024" style="text-decoration:;">ApplicationListener</tspan></tspan></text></g><g id="SvgjsG1025"><text id="SvgjsText1026" font-family="微软雅黑" text-anchor="start" font-size="13px" width="298px" fill="#323232" font-weight="400" align="middle" lineHeight="125%" font-style="" opacity="1" y="38.125" transform="rotate(0)"><tspan id="SvgjsTspan1027" dy="16" x="10"><tspan id="SvgjsTspan1028" style="text-decoration:;">+onApplicationEvent(ApplicationEvent event)</tspan></tspan></text></g></g><g id="SvgjsG1029"><path id="SvgjsPath1030" d="M395.3428442028987 525.5C453.40031871044386 525.5 482.42661558117004 526.3416688345474 540.4840900887152 526.3416688345474 " stroke="#323232" stroke-width="2" fill="none" marker-start="url(#SvgjsMarker1031)"></path></g><g id="SvgjsG1033" transform="translate(564.9503321256038,151)"><path id="SvgjsPath1034" d="M0 4Q0 0 4 0L131 0Q135 0 135 4L135 85Q135 89 131 89L4 89Q0 89 0 85Z " stroke="rgba(50,50,50,1)" stroke-width="2" fill-opacity="1" fill="#ffffff"></path><path id="SvgjsPath1035" d="M0 30L135 30 " stroke="rgba(50,50,50,1)" stroke-width="2" fill="none"></path><path id="SvgjsPath1036" d="M0 0L135 0L135 89L0 89Z " stroke="none" fill="none"></path><g id="SvgjsG1037"><text id="SvgjsText1038" font-family="微软雅黑" text-anchor="middle" font-size="13px" width="115px" fill="#323232" font-weight="700" align="middle" lineHeight="125%" font-style="" opacity="1" y="5.375" transform="rotate(0)"><tspan id="SvgjsTspan1039" dy="16" x="67.5"><tspan id="SvgjsTspan1040" style="text-decoration:;">ApplicationEvent</tspan></tspan></text></g><g id="SvgjsG1041"><text id="SvgjsText1042" font-family="微软雅黑" text-anchor="start" font-size="13px" width="115px" fill="#323232" font-weight="400" align="middle" lineHeight="125%" font-style="" opacity="1" y="49.875" transform="rotate(0)"></text></g></g><g id="SvgjsG1043"><path id="SvgjsPath1044" d="M420.34163647343007 195.5L492.64598429951695 195.5L492.64598429951695 195.5L564.9503321256038 195.5 " stroke-dasharray="8,5" stroke="#323232" stroke-width="2" fill="none" marker-end="url(#SvgjsMarker1045)"></path></g><g id="SvgjsG1047"><path id="SvgjsPath1048" d="M222.6773852657006 241.5C222.67738526570062 336.29999999999995 222.67738526570062 383.70000000000005 222.6773852657006 478.5 " stroke="#323232" stroke-width="2" fill="none" marker-start="url(#SvgjsMarker1049)"></path></g><g id="SvgjsG1051" transform="translate(25.013134057971115,149.5)"><path id="SvgjsPath1052" d="M0 4Q0 0 4 0L391.32850241545896 0Q395.32850241545896 0 395.32850241545896 4L395.32850241545896 88Q395.32850241545896 92 391.32850241545896 92L4 92Q0 92 0 88Z " stroke="rgba(50,50,50,1)" stroke-width="2" fill-opacity="1" fill="#ffffff"></path><path id="SvgjsPath1053" d="M0 30L395.32850241545896 30M0 62L395.32850241545896 62 " stroke="rgba(50,50,50,1)" stroke-width="2" fill="none"></path><path id="SvgjsPath1054" d="M0 0L395.32850241545896 0L395.32850241545896 92L0 92Z " stroke="none" fill="none"></path><g id="SvgjsG1055"><text id="SvgjsText1056" font-family="微软雅黑" text-anchor="middle" font-size="13px" width="376px" fill="#323232" font-weight="700" align="middle" lineHeight="125%" font-style="" opacity="1" y="5.375" transform="rotate(0)"><tspan id="SvgjsTspan1057" dy="16" x="198"><tspan id="SvgjsTspan1058" style="text-decoration:;">ApplicationContext</tspan></tspan></text></g><g id="SvgjsG1059"><text id="SvgjsText1060" font-family="微软雅黑" text-anchor="start" font-size="13px" width="376px" fill="#323232" font-weight="400" align="middle" lineHeight="125%" font-style="" opacity="1" y="36.375" transform="rotate(0)"><tspan id="SvgjsTspan1061" dy="16" x="10"><tspan id="SvgjsTspan1062" style="text-decoration:;">-ApplicationEventMulticaster：ApplicationEventMulticaster</tspan></tspan></text></g><g id="SvgjsG1063"><text id="SvgjsText1064" font-family="微软雅黑" text-anchor="start" font-size="13px" width="376px" fill="#323232" font-weight="400" align="middle" lineHeight="125%" font-style="" opacity="1" y="67.375" transform="rotate(0)"><tspan id="SvgjsTspan1065" dy="16" x="10"><tspan id="SvgjsTspan1066" style="text-decoration:;">+publishEvent(ApplicationEvent event)</tspan></tspan></text></g></g><g id="SvgjsG1067" transform="translate(50.01192632850251,478.5)"><path id="SvgjsPath1068" d="M0 4Q0 0 4 0L341.33091787439616 0Q345.33091787439616 0 345.33091787439616 4L345.33091787439616 90Q345.33091787439616 94 341.33091787439616 94L4 94Q0 94 0 90Z " stroke="rgba(50,50,50,1)" stroke-width="2" fill-opacity="1" fill="#ffffff"></path><path id="SvgjsPath1069" d="M0 30L345.33091787439616 30M0 62L345.33091787439616 62 " stroke="rgba(50,50,50,1)" stroke-width="2" fill="none"></path><path id="SvgjsPath1070" d="M0 0L345.33091787439616 0L345.33091787439616 94L0 94Z " stroke="none" fill="none"></path><g id="SvgjsG1071"><text id="SvgjsText1072" font-family="微软雅黑" text-anchor="middle" font-size="13px" width="326px" fill="#323232" font-weight="700" align="middle" lineHeight="125%" font-style="" opacity="1" y="5.375" transform="rotate(0)"><tspan id="SvgjsTspan1073" dy="16" x="173"><tspan id="SvgjsTspan1074" style="text-decoration:;">ApplicationEventMulticaster</tspan></tspan></text></g><g id="SvgjsG1075"><text id="SvgjsText1076" font-family="微软雅黑" text-anchor="start" font-size="13px" width="326px" fill="#323232" font-weight="400" align="middle" lineHeight="125%" font-style="" opacity="1" y="35.375" transform="rotate(0)"><tspan id="SvgjsTspan1077" dy="16" x="10"><tspan id="SvgjsTspan1078" style="text-decoration:;">-Collection&lt;ApplicationListener&gt;：listeners</tspan></tspan></text></g><g id="SvgjsG1079"><text id="SvgjsText1080" font-family="微软雅黑" text-anchor="start" font-size="13px" width="326px" fill="#323232" font-weight="400" align="middle" lineHeight="125%" font-style="" opacity="1" y="67.375" transform="rotate(0)"><tspan id="SvgjsTspan1081" dy="16" x="10"><tspan id="SvgjsTspan1082" style="text-decoration:;">+multicastEvent(ApplicationEvent event)</tspan></tspan></text></g></g></svg>