<svg id="SvgjsSvg1000" xmlns="http://www.w3.org/2000/svg" version="1.1" xmlns:xlink="http://www.w3.org/1999/xlink" xmlns:svgjs="http://svgjs.com/svgjs" width="973.53125" height="449.40625"><defs id="SvgjsDefs1001"><marker id="SvgjsMarker1092" markerWidth="16" markerHeight="12" refX="10" refY="6" viewBox="0 0 16 12" orient="auto" markerUnits="userSpaceOnUse" stroke-dasharray="0,0"><path id="SvgjsPath1093" d="M0 3L10 6L0 9L0 3 " fill="#323232" stroke="#323232" stroke-width="1"></path></marker><marker id="SvgjsMarker1096" markerWidth="16" markerHeight="12" refX="10" refY="6" viewBox="0 0 16 12" orient="auto" markerUnits="userSpaceOnUse" stroke-dasharray="0,0"><path id="SvgjsPath1097" d="M0 3L10 6L0 9L0 3 " fill="#323232" stroke="#323232" stroke-width="1"></path></marker><marker id="SvgjsMarker1100" markerWidth="16" markerHeight="12" refX="10" refY="6" viewBox="0 0 16 12" orient="auto" markerUnits="userSpaceOnUse" stroke-dasharray="0,0"><path id="SvgjsPath1101" d="M0 3L10 6L0 9L0 3 " fill="#323232" stroke="#323232" stroke-width="1"></path></marker><marker id="SvgjsMarker1104" markerWidth="16" markerHeight="12" refX="10" refY="6" viewBox="0 0 16 12" orient="auto" markerUnits="userSpaceOnUse" stroke-dasharray="0,0"><path id="SvgjsPath1105" d="M0 3L10 6L0 9L0 3 " fill="#323232" stroke="#323232" stroke-width="1"></path></marker><marker id="SvgjsMarker1108" markerWidth="16" markerHeight="12" refX="10" refY="6" viewBox="0 0 16 12" orient="auto" markerUnits="userSpaceOnUse" stroke-dasharray="0,0"><path id="SvgjsPath1109" d="M0 3L10 6L0 9L0 3 " fill="#323232" stroke="#323232" stroke-width="1"></path></marker><marker id="SvgjsMarker1112" markerWidth="16" markerHeight="12" refX="10" refY="6" viewBox="0 0 16 12" orient="auto" markerUnits="userSpaceOnUse" stroke-dasharray="0,0"><path id="SvgjsPath1113" d="M0 3L10 6L0 9L0 3 " fill="#323232" stroke="#323232" stroke-width="1"></path></marker><marker id="SvgjsMarker1146" markerWidth="16" markerHeight="12" refX="10" refY="6" viewBox="0 0 16 12" orient="auto" markerUnits="userSpaceOnUse" stroke-dasharray="0,0"><path id="SvgjsPath1147" d="M0 3L10 6L0 9L0 3 " fill="#323232" stroke="#323232" stroke-width="1"></path></marker><marker id="SvgjsMarker1150" markerWidth="16" markerHeight="12" refX="10" refY="6" viewBox="0 0 16 12" orient="auto" markerUnits="userSpaceOnUse" stroke-dasharray="0,0"><path id="SvgjsPath1151" d="M0 3L10 6L0 9L0 3 " fill="#323232" stroke="#323232" stroke-width="1"></path></marker><marker id="SvgjsMarker1154" markerWidth="16" markerHeight="12" refX="10" refY="6" viewBox="0 0 16 12" orient="auto" markerUnits="userSpaceOnUse" stroke-dasharray="0,0"><path id="SvgjsPath1155" d="M0 3L10 6L0 9L0 3 " fill="#323232" stroke="#323232" stroke-width="1"></path></marker></defs><g id="svgbackgroundid"><defs></defs><rect id="SvgjsRect1008" width="973.53125" height="449.40625" fill="#ffffff"></rect></g><g id="SvgjsG1010" transform="translate(153.5343898464157,52.40625)"><path id="SvgjsPath1011" d="M0 0L590.6374851535843 0L590.6374851535843 319.7999954223633L0 319.7999954223633Z " stroke-dasharray="10,6" stroke="rgba(50,50,50,1)" stroke-width="2" fill-opacity="1" fill="#ffffff"></path><g id="SvgjsG1012"><text id="SvgjsText1013" font-family="微软雅黑" text-anchor="start" font-size="13px" width="571px" fill="#323232" font-weight="400" align="top" lineHeight="125%" font-style="" opacity="1" y="-1.625" transform="rotate(0)"><tspan id="SvgjsTspan1014" dy="16" x="10"><tspan id="SvgjsTspan1015" style="text-decoration:;">RabbitMQ Broker</tspan></tspan></text></g></g><g id="SvgjsG1016" transform="translate(25.00934184303742,113.40625)"><path id="SvgjsPath1017" d="M0 35C0 -11.666666666666666 100 -11.666666666666666 100 35C100 81.66666666666667 0 81.66666666666667 0 35Z " stroke="rgba(50,50,50,1)" stroke-width="2" fill-opacity="1" fill="#ffffff"></path><g id="SvgjsG1018"><text id="SvgjsText1019" font-family="微软雅黑" text-anchor="middle" font-size="13px" width="80px" fill="#323232" font-weight="400" align="middle" lineHeight="125%" font-style="" opacity="1" y="25.375" transform="rotate(0)"><tspan id="SvgjsTspan1020" dy="16" x="50"><tspan id="SvgjsTspan1021" style="text-decoration:;">Producer1</tspan></tspan></text></g></g><g id="SvgjsG1022" transform="translate(25.00934184303742,240.40625)"><path id="SvgjsPath1023" d="M0 35C0 -11.666666666666666 100 -11.666666666666666 100 35C100 81.66666666666667 0 81.66666666666667 0 35Z " stroke="rgba(50,50,50,1)" stroke-width="2" fill-opacity="1" fill="#ffffff"></path><g id="SvgjsG1024"><text id="SvgjsText1025" font-family="微软雅黑" text-anchor="middle" font-size="13px" width="80px" fill="#323232" font-weight="400" align="middle" lineHeight="125%" font-style="" opacity="1" y="25.375" transform="rotate(0)"><tspan id="SvgjsTspan1026" dy="16" x="50"><tspan id="SvgjsTspan1027" style="text-decoration:;">Producer2</tspan></tspan></text></g></g><g id="SvgjsG1028" transform="translate(199.00934184303742,113.40625)"><path id="SvgjsPath1029" d="M0 35C0 -11.666666666666666 100 -11.666666666666666 100 35C100 81.66666666666667 0 81.66666666666667 0 35Z " stroke="rgba(50,50,50,1)" stroke-width="2" fill-opacity="1" fill="#ffffff"></path><g id="SvgjsG1030"><text id="SvgjsText1031" font-family="微软雅黑" text-anchor="middle" font-size="13px" width="80px" fill="#323232" font-weight="400" align="middle" lineHeight="125%" font-style="" opacity="1" y="25.375" transform="rotate(0)"><tspan id="SvgjsTspan1032" dy="16" x="50"><tspan id="SvgjsTspan1033" style="text-decoration:;">Exchange1</tspan></tspan></text></g></g><g id="SvgjsG1034" transform="translate(204.00934184303742,240.40625)"><path id="SvgjsPath1035" d="M0 35C0 -11.666666666666666 100 -11.666666666666666 100 35C100 81.66666666666667 0 81.66666666666667 0 35Z " stroke="rgba(50,50,50,1)" stroke-width="2" fill-opacity="1" fill="#ffffff"></path><g id="SvgjsG1036"><text id="SvgjsText1037" font-family="微软雅黑" text-anchor="middle" font-size="13px" width="80px" fill="#323232" font-weight="400" align="middle" lineHeight="125%" font-style="" opacity="1" y="25.375" transform="rotate(0)"><tspan id="SvgjsTspan1038" dy="16" x="50"><tspan id="SvgjsTspan1039" style="text-decoration:;">Exchange2</tspan></tspan></text></g></g><g id="SvgjsG1040" transform="translate(384.171875,120.50999999999999)"><path id="SvgjsPath1041" d="M0 0L44.3422 0L44.3422 55.89624999999998L0 55.89624999999998Z " stroke="rgba(102, 102, 102,1)" stroke-width="1" fill-opacity="1" fill="#ffffff"></path><path id="SvgjsPath1042" d="M44.3422 0L88.6844 0L88.6844 55.89624999999998L44.3422 55.89624999999998Z " stroke="rgba(102, 102, 102,1)" stroke-width="1" fill-opacity="1" fill="#ffffff"></path><path id="SvgjsPath1043" d="M88.6578 0L133 0L133 55.89624999999998L88.6578 55.89624999999998Z " stroke="rgba(102, 102, 102,1)" stroke-width="1" fill-opacity="1" fill="#ffffff"></path><path id="SvgjsPath1044" d="M133 0L177.3422 0L177.3422 55.89624999999998L133 55.89624999999998Z " stroke="rgba(102, 102, 102,1)" stroke-width="1" fill-opacity="1" fill="#ffffff"></path><path id="SvgjsPath1045" d="M177.3422 0L221.68439999999998 0L221.68439999999998 55.89624999999998L177.3422 55.89624999999998Z " stroke="rgba(102, 102, 102,1)" stroke-width="1" fill-opacity="1" fill="#ffffff"></path><path id="SvgjsPath1046" d="M221.6578 0L266 0L266 55.89624999999998L221.6578 55.89624999999998Z " stroke="rgba(102, 102, 102,1)" stroke-width="1" fill-opacity="1" fill="#ffffff"></path><g id="SvgjsG1047"><text id="SvgjsText1048" font-family="微软雅黑" text-anchor="middle" font-size="16px" width="45px" fill="#323232" font-weight="400" align="middle" lineHeight="125%" font-style="" opacity="1" y="15.94812499999999" transform="rotate(0)"></text></g><g id="SvgjsG1049"><text id="SvgjsText1050" font-family="微软雅黑" text-anchor="middle" font-size="16px" width="45px" fill="#323232" font-weight="400" align="middle" lineHeight="125%" font-style="" opacity="1" y="15.94812499999999" transform="rotate(0)"></text></g><g id="SvgjsG1051"><text id="SvgjsText1052" font-family="微软雅黑" text-anchor="middle" font-size="16px" width="45px" fill="#323232" font-weight="400" align="middle" lineHeight="125%" font-style="" opacity="1" y="15.94812499999999" transform="rotate(0)"></text></g><g id="SvgjsG1053"><text id="SvgjsText1054" font-family="微软雅黑" text-anchor="middle" font-size="16px" width="45px" fill="#323232" font-weight="400" align="middle" lineHeight="125%" font-style="" opacity="1" y="15.94812499999999" transform="rotate(0)"></text></g><g id="SvgjsG1055"><text id="SvgjsText1056" font-family="微软雅黑" text-anchor="middle" font-size="16px" width="45px" fill="#323232" font-weight="400" align="middle" lineHeight="125%" font-style="" opacity="1" y="15.94812499999999" transform="rotate(0)"></text></g><g id="SvgjsG1057"><text id="SvgjsText1058" font-family="微软雅黑" text-anchor="middle" font-size="16px" width="45px" fill="#323232" font-weight="400" align="middle" lineHeight="125%" font-style="" opacity="1" y="15.94812499999999" transform="rotate(0)"></text></g></g><g id="SvgjsG1059" transform="translate(437.171875,80.50999999999999)"><path id="SvgjsPath1060" d="M0 0L160 0L160 40L0 40Z " stroke="none" fill="none"></path><g id="SvgjsG1061"><text id="SvgjsText1062" font-family="微软雅黑" text-anchor="middle" font-size="13px" width="160px" fill="#323232" font-weight="400" align="middle" lineHeight="125%" font-style="" opacity="1" y="10.375" transform="rotate(0)"><tspan id="SvgjsTspan1063" dy="16" x="80"><tspan id="SvgjsTspan1064" style="text-decoration:;">Quue1</tspan></tspan></text></g></g><g id="SvgjsG1065" transform="translate(384.171875,247.51)"><path id="SvgjsPath1066" d="M0 0L44.3422 0L44.3422 55.89624999999998L0 55.89624999999998Z " stroke="rgba(102, 102, 102,1)" stroke-width="1" fill-opacity="1" fill="#ffffff"></path><path id="SvgjsPath1067" d="M44.3422 0L88.6844 0L88.6844 55.89624999999998L44.3422 55.89624999999998Z " stroke="rgba(102, 102, 102,1)" stroke-width="1" fill-opacity="1" fill="#ffffff"></path><path id="SvgjsPath1068" d="M88.6578 0L133 0L133 55.89624999999998L88.6578 55.89624999999998Z " stroke="rgba(102, 102, 102,1)" stroke-width="1" fill-opacity="1" fill="#ffffff"></path><path id="SvgjsPath1069" d="M133 0L177.3422 0L177.3422 55.89624999999998L133 55.89624999999998Z " stroke="rgba(102, 102, 102,1)" stroke-width="1" fill-opacity="1" fill="#ffffff"></path><path id="SvgjsPath1070" d="M177.3422 0L221.68439999999998 0L221.68439999999998 55.89624999999998L177.3422 55.89624999999998Z " stroke="rgba(102, 102, 102,1)" stroke-width="1" fill-opacity="1" fill="#ffffff"></path><path id="SvgjsPath1071" d="M221.6578 0L266 0L266 55.89624999999998L221.6578 55.89624999999998Z " stroke="rgba(102, 102, 102,1)" stroke-width="1" fill-opacity="1" fill="#ffffff"></path><g id="SvgjsG1072"><text id="SvgjsText1073" font-family="微软雅黑" text-anchor="middle" font-size="16px" width="45px" fill="#323232" font-weight="400" align="middle" lineHeight="125%" font-style="" opacity="1" y="15.94812499999999" transform="rotate(0)"></text></g><g id="SvgjsG1074"><text id="SvgjsText1075" font-family="微软雅黑" text-anchor="middle" font-size="16px" width="45px" fill="#323232" font-weight="400" align="middle" lineHeight="125%" font-style="" opacity="1" y="15.94812499999999" transform="rotate(0)"></text></g><g id="SvgjsG1076"><text id="SvgjsText1077" font-family="微软雅黑" text-anchor="middle" font-size="16px" width="45px" fill="#323232" font-weight="400" align="middle" lineHeight="125%" font-style="" opacity="1" y="15.94812499999999" transform="rotate(0)"></text></g><g id="SvgjsG1078"><text id="SvgjsText1079" font-family="微软雅黑" text-anchor="middle" font-size="16px" width="45px" fill="#323232" font-weight="400" align="middle" lineHeight="125%" font-style="" opacity="1" y="15.94812499999999" transform="rotate(0)"></text></g><g id="SvgjsG1080"><text id="SvgjsText1081" font-family="微软雅黑" text-anchor="middle" font-size="16px" width="45px" fill="#323232" font-weight="400" align="middle" lineHeight="125%" font-style="" opacity="1" y="15.94812499999999" transform="rotate(0)"></text></g><g id="SvgjsG1082"><text id="SvgjsText1083" font-family="微软雅黑" text-anchor="middle" font-size="16px" width="45px" fill="#323232" font-weight="400" align="middle" lineHeight="125%" font-style="" opacity="1" y="15.94812499999999" transform="rotate(0)"></text></g></g><g id="SvgjsG1084" transform="translate(437.171875,207.51)"><path id="SvgjsPath1085" d="M0 0L160 0L160 40L0 40Z " stroke="none" fill="none"></path><g id="SvgjsG1086"><text id="SvgjsText1087" font-family="微软雅黑" text-anchor="middle" font-size="13px" width="160px" fill="#323232" font-weight="400" align="middle" lineHeight="125%" font-style="" opacity="1" y="10.375" transform="rotate(0)"><tspan id="SvgjsTspan1088" dy="16" x="80"><tspan id="SvgjsTspan1089" style="text-decoration:;">Quue2</tspan></tspan></text></g></g><g id="SvgjsG1090"><path id="SvgjsPath1091" d="M125.00934184303742 148.40625L162.00934184303742 148.40625L162.00934184303742 148.40625L199.00934184303742 148.40625 " stroke="#323232" stroke-width="1" fill="none" marker-end="url(#SvgjsMarker1092)"></path></g><g id="SvgjsG1094"><path id="SvgjsPath1095" d="M125.00934184303742 275.40625L164.50934184303742 275.40625L164.50934184303742 275.40625L204.00934184303742 275.40625 " stroke="#323232" stroke-width="1" fill="none" marker-end="url(#SvgjsMarker1096)"></path></g><g id="SvgjsG1098"><path id="SvgjsPath1099" d="M299.0093418430374 148.40625L341.5906084215187 148.40625L341.5906084215187 148.458125L384.171875 148.458125 " stroke="#323232" stroke-width="1" fill="none" marker-end="url(#SvgjsMarker1100)"></path></g><g id="SvgjsG1102"><path id="SvgjsPath1103" d="M304.0093418430374 275.40625L344.0906084215187 275.40625L344.0906084215187 275.458125L384.171875 275.458125 " stroke="#323232" stroke-width="1" fill="none" marker-end="url(#SvgjsMarker1104)"></path></g><g id="SvgjsG1106"><path id="SvgjsPath1107" d="M299.0093418430374 148.40625L384.171875 275.458125 " stroke="#323232" stroke-width="1" fill="none" marker-end="url(#SvgjsMarker1108)"></path></g><g id="SvgjsG1110"><path id="SvgjsPath1111" d="M304.0093418430374 275.40625L384.171875 148.458125 " stroke="#323232" stroke-width="1" fill="none" marker-end="url(#SvgjsMarker1112)"></path></g><g id="SvgjsG1114" transform="translate(783.5343898464157,25.01375915527342)"><path id="SvgjsPath1115" d="M0 0L164.6374851535843 0L164.6374851535843 225.49624084472657L0 225.49624084472657Z " stroke-dasharray="10,6" stroke="rgba(50,50,50,1)" stroke-width="2" fill-opacity="1" fill="#ffffff"></path><g id="SvgjsG1116"><text id="SvgjsText1117" font-family="微软雅黑" text-anchor="start" font-size="13px" width="145px" fill="#323232" font-weight="400" align="top" lineHeight="125%" font-style="" opacity="1" y="-1.625" transform="rotate(0)"><tspan id="SvgjsTspan1118" dy="16" x="10"><tspan id="SvgjsTspan1119" style="text-decoration:;">Consumer Group1</tspan></tspan></text></g></g><g id="SvgjsG1120" transform="translate(812.0093418430374,50.761879577636705)"><path id="SvgjsPath1121" d="M0 35C0 -11.666666666666666 100 -11.666666666666666 100 35C100 81.66666666666667 0 81.66666666666667 0 35Z " stroke="rgba(50,50,50,1)" stroke-width="2" fill-opacity="1" fill="#ffffff"></path><g id="SvgjsG1122"><text id="SvgjsText1123" font-family="微软雅黑" text-anchor="middle" font-size="13px" width="80px" fill="#323232" font-weight="400" align="middle" lineHeight="125%" font-style="" opacity="1" y="25.375" transform="rotate(0)"><tspan id="SvgjsTspan1124" dy="16" x="50"><tspan id="SvgjsTspan1125" style="text-decoration:;">Consumer1</tspan></tspan></text></g></g><g id="SvgjsG1126" transform="translate(815.8531324232079,147.7618795776367)"><path id="SvgjsPath1127" d="M0 35C0 -11.666666666666666 100 -11.666666666666666 100 35C100 81.66666666666667 0 81.66666666666667 0 35Z " stroke="rgba(50,50,50,1)" stroke-width="2" fill-opacity="1" fill="#ffffff"></path><g id="SvgjsG1128"><text id="SvgjsText1129" font-family="微软雅黑" text-anchor="middle" font-size="13px" width="80px" fill="#323232" font-weight="400" align="middle" lineHeight="125%" font-style="" opacity="1" y="25.375" transform="rotate(0)"><tspan id="SvgjsTspan1130" dy="16" x="50"><tspan id="SvgjsTspan1131" style="text-decoration:;">Consumer2</tspan></tspan></text></g></g><g id="SvgjsG1132" transform="translate(787.3781804265861,313.40625)"><path id="SvgjsPath1133" d="M0 0L156.94990399324342 0L156.94990399324342 111.49624084472657L0 111.49624084472657Z " stroke-dasharray="10,6" stroke="rgba(50,50,50,1)" stroke-width="2" fill-opacity="1" fill="#ffffff"></path><g id="SvgjsG1134"><text id="SvgjsText1135" font-family="微软雅黑" text-anchor="start" font-size="13px" width="137px" fill="#323232" font-weight="400" align="top" lineHeight="125%" font-style="" opacity="1" y="-1.625" transform="rotate(0)"><tspan id="SvgjsTspan1136" dy="16" x="10"><tspan id="SvgjsTspan1137" style="text-decoration:;">Consumer Group2</tspan></tspan></text></g></g><g id="SvgjsG1138" transform="translate(819.6969230033783,334.1543704223633)"><path id="SvgjsPath1139" d="M0 35C0 -11.666666666666666 100 -11.666666666666666 100 35C100 81.66666666666667 0 81.66666666666667 0 35Z " stroke="rgba(50,50,50,1)" stroke-width="2" fill-opacity="1" fill="#ffffff"></path><g id="SvgjsG1140"><text id="SvgjsText1141" font-family="微软雅黑" text-anchor="middle" font-size="13px" width="80px" fill="#323232" font-weight="400" align="middle" lineHeight="125%" font-style="" opacity="1" y="25.375" transform="rotate(0)"><tspan id="SvgjsTspan1142" dy="16" x="50"><tspan id="SvgjsTspan1143" style="text-decoration:;">Consumer3</tspan></tspan></text></g></g><g id="SvgjsG1144"><path id="SvgjsPath1145" d="M812.0093418430374 85.7618795776367L650.171875 148.458125 " stroke="#323232" stroke-width="1" fill="none" marker-end="url(#SvgjsMarker1146)"></path></g><g id="SvgjsG1148"><path id="SvgjsPath1149" d="M815.8531324232079 182.7618795776367L650.171875 148.458125 " stroke="#323232" stroke-width="1" fill="none" marker-end="url(#SvgjsMarker1150)"></path></g><g id="SvgjsG1152"><path id="SvgjsPath1153" d="M819.6969230033783 369.1543704223633L650.171875 275.458125 " stroke="#323232" stroke-width="1" fill="none" marker-end="url(#SvgjsMarker1154)"></path></g></svg>