<svg id="SvgjsSvg1175" xmlns="http://www.w3.org/2000/svg" version="1.1" xmlns:xlink="http://www.w3.org/1999/xlink" xmlns:svgjs="http://svgjs.com/svgjs" width="881.9375" height="771"><defs id="SvgjsDefs1176"><marker id="SvgjsMarker1201" markerWidth="20" markerHeight="12" refX="0" refY="6" viewBox="0 0 20 12" orient="auto" markerUnits="userSpaceOnUse" stroke-dasharray="0,0"><path id="SvgjsPath1202" d="M2 6L10 2L18 6L10 10L2 6 " fill="#ffffff" stroke="#323232" stroke-width="2"></path></marker><marker id="SvgjsMarker1215" markerWidth="16" markerHeight="16" refX="11" refY="8" viewBox="0 0 16 16" orient="auto" markerUnits="userSpaceOnUse" stroke-dasharray="0,0"><path id="SvgjsPath1216" d="M0 0L10 8L0 16 " fill="none" stroke="#323232" stroke-width="2"></path></marker><marker id="SvgjsMarker1219" markerWidth="20" markerHeight="12" refX="0" refY="6" viewBox="0 0 20 12" orient="auto" markerUnits="userSpaceOnUse" stroke-dasharray="0,0"><path id="SvgjsPath1220" d="M2 6L10 2L18 6L10 10L2 6 " fill="#ffffff" stroke="#323232" stroke-width="2"></path></marker><marker id="SvgjsMarker1255" markerWidth="14" markerHeight="12" refX="16" refY="6" viewBox="0 0 14 12" orient="auto" markerUnits="userSpaceOnUse" stroke-dasharray="0,0"><path id="SvgjsPath1256" d="M1 1L14 6L1 11L1 1 " fill="#ffffff" stroke="#323232" stroke-width="2"></path></marker><marker id="SvgjsMarker1269" markerWidth="14" markerHeight="12" refX="16" refY="6" viewBox="0 0 14 12" orient="auto" markerUnits="userSpaceOnUse" stroke-dasharray="0,0"><path id="SvgjsPath1270" d="M1 1L14 6L1 11L1 1 " fill="#ffffff" stroke="#323232" stroke-width="2"></path></marker></defs><g id="SvgjsG1177" transform="translate(212.28125,53)"><path id="SvgjsPath1178" d="M0 0L96 0L96 120L0 120Z " stroke="none" fill="none"></path><g id="SvgjsG1179"><text id="SvgjsText1180" font-family="微软雅黑" text-anchor="middle" font-size="13px" width="96px" fill="#323232" font-weight="400" align="middle" lineHeight="125%" font-style="" opacity="1" y="50.375" transform="rotate(0)"></text></g></g><g id="SvgjsG1181" transform="translate(367.28125,519.5)"><path id="SvgjsPath1182" d="M0 0L160 0L160 40L0 40Z " stroke="none" fill="none"></path><g id="SvgjsG1183"><text id="SvgjsText1184" font-family="微软雅黑" text-anchor="middle" font-size="13px" width="160px" fill="#323232" font-weight="400" align="middle" lineHeight="125%" font-style="" opacity="1" y="10.375" transform="rotate(0)"><tspan id="SvgjsTspan1185" dy="16" x="80"><tspan id="SvgjsTspan1186" style="text-decoration:;">1..*</tspan></tspan></text></g></g><g id="SvgjsG1187" transform="translate(539.9503321256038,511.5)"><path id="SvgjsPath1188" d="M0 4Q0 0 4 0L313.33091787439616 0Q317.33091787439616 0 317.33091787439616 4L317.33091787439616 61.5Q317.33091787439616 65.5 313.33091787439616 65.5L4 65.5Q0 65.5 0 61.5Z " stroke="rgba(50,50,50,1)" stroke-width="2" fill-opacity="1" fill="#ffffff"></path><path id="SvgjsPath1189" d="M0 30L317.33091787439616 30 " stroke="rgba(50,50,50,1)" stroke-width="2" fill="none"></path><path id="SvgjsPath1190" d="M0 0L317.33091787439616 0L317.33091787439616 65.5L0 65.5Z " stroke="none" fill="none"></path><g id="SvgjsG1191"><text id="SvgjsText1192" font-family="微软雅黑" text-anchor="middle" font-size="13px" width="298px" fill="#323232" font-weight="700" align="middle" lineHeight="125%" font-style="" opacity="1" y="5.375" transform="rotate(0)"><tspan id="SvgjsTspan1193" dy="16" x="159"><tspan id="SvgjsTspan1194" style="text-decoration:;">ApplicationListener</tspan></tspan></text></g><g id="SvgjsG1195"><text id="SvgjsText1196" font-family="微软雅黑" text-anchor="start" font-size="13px" width="298px" fill="#323232" font-weight="400" align="middle" lineHeight="125%" font-style="" opacity="1" y="38.125" transform="rotate(0)"><tspan id="SvgjsTspan1197" dy="16" x="10"><tspan id="SvgjsTspan1198" style="text-decoration:;">+onApplicationEvent(ApplicationEvent event)</tspan></tspan></text></g></g><g id="SvgjsG1199"><path id="SvgjsPath1200" d="M395.3428442028987 553.5C453.40031871044386 553.5 482.42661558117004 554.3416688345474 540.4840900887152 554.3416688345474 " stroke="#323232" stroke-width="2" fill="none" marker-start="url(#SvgjsMarker1201)"></path></g><g id="SvgjsG1203" transform="translate(565.9503321256038,179)"><path id="SvgjsPath1204" d="M0 4Q0 0 4 0L131 0Q135 0 135 4L135 85Q135 89 131 89L4 89Q0 89 0 85Z " stroke="rgba(50,50,50,1)" stroke-width="2" fill-opacity="1" fill="#ffffff"></path><path id="SvgjsPath1205" d="M0 30L135 30 " stroke="rgba(50,50,50,1)" stroke-width="2" fill="none"></path><path id="SvgjsPath1206" d="M0 0L135 0L135 89L0 89Z " stroke="none" fill="none"></path><g id="SvgjsG1207"><text id="SvgjsText1208" font-family="微软雅黑" text-anchor="middle" font-size="13px" width="115px" fill="#323232" font-weight="700" align="middle" lineHeight="125%" font-style="" opacity="1" y="5.375" transform="rotate(0)"><tspan id="SvgjsTspan1209" dy="16" x="67.5"><tspan id="SvgjsTspan1210" style="text-decoration:;">ApplicationEvent</tspan></tspan></text></g><g id="SvgjsG1211"><text id="SvgjsText1212" font-family="微软雅黑" text-anchor="start" font-size="13px" width="115px" fill="#323232" font-weight="400" align="middle" lineHeight="125%" font-style="" opacity="1" y="49.875" transform="rotate(0)"></text></g></g><g id="SvgjsG1213"><path id="SvgjsPath1214" d="M420.34163647343007 223.5L493.14598429951695 223.5L493.14598429951695 223.5L565.9503321256038 223.5 " stroke-dasharray="8,5" stroke="#323232" stroke-width="2" fill="none" marker-end="url(#SvgjsMarker1215)"></path></g><g id="SvgjsG1217"><path id="SvgjsPath1218" d="M222.6773852657006 269.5C222.67738526570062 364.29999999999995 222.67738526570062 411.70000000000005 222.6773852657006 506.5 " stroke="#323232" stroke-width="2" fill="none" marker-start="url(#SvgjsMarker1219)"></path></g><g id="SvgjsG1221" transform="translate(25.013134057971115,177.5)"><path id="SvgjsPath1222" d="M0 4Q0 0 4 0L391.32850241545896 0Q395.32850241545896 0 395.32850241545896 4L395.32850241545896 88Q395.32850241545896 92 391.32850241545896 92L4 92Q0 92 0 88Z " stroke="rgba(50,50,50,1)" stroke-width="2" fill-opacity="1" fill="#ffffff"></path><path id="SvgjsPath1223" d="M0 30L395.32850241545896 30M0 62L395.32850241545896 62 " stroke="rgba(50,50,50,1)" stroke-width="2" fill="none"></path><path id="SvgjsPath1224" d="M0 0L395.32850241545896 0L395.32850241545896 92L0 92Z " stroke="none" fill="none"></path><g id="SvgjsG1225"><text id="SvgjsText1226" font-family="微软雅黑" text-anchor="middle" font-size="13px" width="376px" fill="#323232" font-weight="700" align="middle" lineHeight="125%" font-style="" opacity="1" y="5.375" transform="rotate(0)"><tspan id="SvgjsTspan1227" dy="16" x="198"><tspan id="SvgjsTspan1228" style="text-decoration:;">ApplicationContext</tspan></tspan></text></g><g id="SvgjsG1229"><text id="SvgjsText1230" font-family="微软雅黑" text-anchor="start" font-size="13px" width="376px" fill="#323232" font-weight="400" align="middle" lineHeight="125%" font-style="" opacity="1" y="36.375" transform="rotate(0)"><tspan id="SvgjsTspan1231" dy="16" x="10"><tspan id="SvgjsTspan1232" style="text-decoration:;">-ApplicationEventMulticaster：ApplicationEventMulticaster</tspan></tspan></text></g><g id="SvgjsG1233"><text id="SvgjsText1234" font-family="微软雅黑" text-anchor="start" font-size="13px" width="376px" fill="#323232" font-weight="400" align="middle" lineHeight="125%" font-style="" opacity="1" y="67.375" transform="rotate(0)"><tspan id="SvgjsTspan1235" dy="16" x="10"><tspan id="SvgjsTspan1236" style="text-decoration:;">+publishEvent(ApplicationEvent event)</tspan></tspan></text></g></g><g id="SvgjsG1237" transform="translate(50.01192632850251,506.5)"><path id="SvgjsPath1238" d="M0 4Q0 0 4 0L341.33091787439616 0Q345.33091787439616 0 345.33091787439616 4L345.33091787439616 90Q345.33091787439616 94 341.33091787439616 94L4 94Q0 94 0 90Z " stroke="rgba(50,50,50,1)" stroke-width="2" fill-opacity="1" fill="#ffffff"></path><path id="SvgjsPath1239" d="M0 30L345.33091787439616 30M0 62L345.33091787439616 62 " stroke="rgba(50,50,50,1)" stroke-width="2" fill="none"></path><path id="SvgjsPath1240" d="M0 0L345.33091787439616 0L345.33091787439616 94L0 94Z " stroke="none" fill="none"></path><g id="SvgjsG1241"><text id="SvgjsText1242" font-family="微软雅黑" text-anchor="middle" font-size="13px" width="326px" fill="#323232" font-weight="700" align="middle" lineHeight="125%" font-style="" opacity="1" y="5.375" transform="rotate(0)"><tspan id="SvgjsTspan1243" dy="16" x="173"><tspan id="SvgjsTspan1244" style="text-decoration:;">ApplicationEventMulticaster</tspan></tspan></text></g><g id="SvgjsG1245"><text id="SvgjsText1246" font-family="微软雅黑" text-anchor="start" font-size="13px" width="326px" fill="#323232" font-weight="400" align="middle" lineHeight="125%" font-style="" opacity="1" y="35.375" transform="rotate(0)"><tspan id="SvgjsTspan1247" dy="16" x="10"><tspan id="SvgjsTspan1248" style="text-decoration:;">-Collection&lt;ApplicationListener&gt;：listeners</tspan></tspan></text></g><g id="SvgjsG1249"><text id="SvgjsText1250" font-family="微软雅黑" text-anchor="start" font-size="13px" width="326px" fill="#323232" font-weight="400" align="middle" lineHeight="125%" font-style="" opacity="1" y="67.375" transform="rotate(0)"><tspan id="SvgjsTspan1251" dy="16" x="10"><tspan id="SvgjsTspan1252" style="text-decoration:;">+multicastEvent(ApplicationEvent event)</tspan></tspan></text></g></g><g id="SvgjsG1253"><path id="SvgjsPath1254" d="M633.4503321256038 179L633.4503321256038 146.5L633.4503321256038 146.5L633.4503321256038 114 " stroke-dasharray="8,5" stroke="#323232" stroke-width="2" fill="none" marker-end="url(#SvgjsMarker1255)"></path></g><g id="SvgjsG1257" transform="translate(565.9503321256038,25)"><path id="SvgjsPath1258" d="M0 4Q0 0 4 0L131 0Q135 0 135 4L135 85Q135 89 131 89L4 89Q0 89 0 85Z " stroke="rgba(50,50,50,1)" stroke-width="2" fill-opacity="1" fill="#ffffff"></path><path id="SvgjsPath1259" d="M0 30L135 30 " stroke="rgba(50,50,50,1)" stroke-width="2" fill="none"></path><path id="SvgjsPath1260" d="M0 0L135 0L135 89L0 89Z " stroke="none" fill="none"></path><g id="SvgjsG1261"><text id="SvgjsText1262" font-family="微软雅黑" text-anchor="middle" font-size="13px" width="115px" fill="#323232" font-weight="700" align="middle" lineHeight="125%" font-style="" opacity="1" y="5.375" transform="rotate(0)"><tspan id="SvgjsTspan1263" dy="16" x="67.5"><tspan id="SvgjsTspan1264" style="text-decoration:;">EventObject</tspan></tspan></text></g><g id="SvgjsG1265"><text id="SvgjsText1266" font-family="微软雅黑" text-anchor="start" font-size="13px" width="115px" fill="#323232" font-weight="400" align="middle" lineHeight="125%" font-style="" opacity="1" y="49.875" transform="rotate(0)"></text></g></g><g id="SvgjsG1267"><path id="SvgjsPath1268" d="M698.6157910628019 577L698.6157910628019 617L698.6157910628019 617L698.6157910628019 657 " stroke-dasharray="8,5" stroke="#323232" stroke-width="2" fill="none" marker-end="url(#SvgjsMarker1269)"></path></g><g id="SvgjsG1271" transform="translate(631.1157910628019,657)"><path id="SvgjsPath1272" d="M0 4Q0 0 4 0L131 0Q135 0 135 4L135 85Q135 89 131 89L4 89Q0 89 0 85Z " stroke="rgba(50,50,50,1)" stroke-width="2" fill-opacity="1" fill="#ffffff"></path><path id="SvgjsPath1273" d="M0 30L135 30 " stroke="rgba(50,50,50,1)" stroke-width="2" fill="none"></path><path id="SvgjsPath1274" d="M0 0L135 0L135 89L0 89Z " stroke="none" fill="none"></path><g id="SvgjsG1275"><text id="SvgjsText1276" font-family="微软雅黑" text-anchor="middle" font-size="13px" width="115px" fill="#323232" font-weight="700" align="middle" lineHeight="125%" font-style="" opacity="1" y="5.375" transform="rotate(0)"><tspan id="SvgjsTspan1277" dy="16" x="67.5"><tspan id="SvgjsTspan1278" style="text-decoration:;">EventListener</tspan></tspan></text></g><g id="SvgjsG1279"><text id="SvgjsText1280" font-family="微软雅黑" text-anchor="start" font-size="13px" width="115px" fill="#323232" font-weight="400" align="middle" lineHeight="125%" font-style="" opacity="1" y="49.875" transform="rotate(0)"></text></g></g></svg>