<svg id="SvgjsSvg1000" xmlns="http://www.w3.org/2000/svg" version="1.1" xmlns:xlink="http://www.w3.org/1999/xlink" xmlns:svgjs="http://svgjs.com/svgjs" width="363" height="554"><defs id="SvgjsDefs1001"><marker id="SvgjsMarker1023" markerWidth="16" markerHeight="12" refX="16" refY="6" viewBox="0 0 16 12" orient="auto" markerUnits="userSpaceOnUse" stroke-dasharray="0,0"><path id="SvgjsPath1024" d="M0 2L14 6L0 11L0 2 " fill="#323232" stroke="#323232" stroke-width="2"></path></marker><marker id="SvgjsMarker1037" markerWidth="16" markerHeight="12" refX="16" refY="6" viewBox="0 0 16 12" orient="auto" markerUnits="userSpaceOnUse" stroke-dasharray="0,0"><path id="SvgjsPath1038" d="M0 2L14 6L0 11L0 2 " fill="#323232" stroke="#323232" stroke-width="2"></path></marker><marker id="SvgjsMarker1055" markerWidth="16" markerHeight="12" refX="16" refY="6" viewBox="0 0 16 12" orient="auto" markerUnits="userSpaceOnUse" stroke-dasharray="0,0"><path id="SvgjsPath1056" d="M0 2L14 6L0 11L0 2 " fill="#323232" stroke="#323232" stroke-width="2"></path></marker><marker id="SvgjsMarker1065" markerWidth="16" markerHeight="12" refX="16" refY="6" viewBox="0 0 16 12" orient="auto" markerUnits="userSpaceOnUse" stroke-dasharray="0,0"><path id="SvgjsPath1066" d="M0 2L14 6L0 11L0 2 " fill="#323232" stroke="#323232" stroke-width="2"></path></marker><marker id="SvgjsMarker1069" markerWidth="16" markerHeight="12" refX="16" refY="6" viewBox="0 0 16 12" orient="auto" markerUnits="userSpaceOnUse" stroke-dasharray="0,0"><path id="SvgjsPath1070" d="M0 2L14 6L0 11L0 2 " fill="#323232" stroke="#323232" stroke-width="2"></path></marker><marker id="SvgjsMarker1073" markerWidth="16" markerHeight="12" refX="16" refY="6" viewBox="0 0 16 12" orient="auto" markerUnits="userSpaceOnUse" stroke-dasharray="0,0"><path id="SvgjsPath1074" d="M0 2L14 6L0 11L0 2 " fill="#323232" stroke="#323232" stroke-width="2"></path></marker></defs><g id="SvgjsG1007" transform="translate(235,25)"><path id="SvgjsPath1008" d="M16.666666666666668 0L83.33333333333333 0C105.55555555555556 0 105.55555555555556 50 83.33333333333333 50L16.666666666666668 50C-5.555555555555556 50 -5.555555555555556 0 16.666666666666668 0Z " stroke="rgba(50,50,50,1)" stroke-width="2" fill-opacity="1" fill="#f5927b"></path><g id="SvgjsG1009"><text id="SvgjsText1010" font-family="Arial" text-anchor="middle" font-size="13px" width="80px" fill="#323232" font-weight="400" align="middle" lineHeight="125%" font-style="" opacity="1" y="15.375" transform="rotate(0)"><tspan id="SvgjsTspan1011" dy="16" x="50"><tspan id="SvgjsTspan1012" style="text-decoration:;">开始</tspan></tspan></text></g></g><g id="SvgjsG1013" transform="translate(232,224)"><path id="SvgjsPath1014" d="M0 50L53 0L106 50L53 100L0 50Z " stroke="rgba(50,50,50,1)" stroke-width="2" fill-opacity="1" fill="#f5927b"></path><g id="SvgjsG1015"><text id="SvgjsText1016" font-family="Arial" text-anchor="middle" font-size="13px" width="86px" fill="#323232" font-weight="400" align="middle" lineHeight="125%" font-style="" opacity="1" y="32.375" transform="rotate(0)"><tspan id="SvgjsTspan1017" dy="16" x="53"><tspan id="SvgjsTspan1018" style="text-decoration:;">重试次数大于</tspan></tspan><tspan id="SvgjsTspan1019" dy="16" x="53"><tspan id="SvgjsTspan1020" style="text-decoration:;">最大重试次数</tspan></tspan></text></g></g><g id="SvgjsG1021"><path id="SvgjsPath1022" d="M285 324L285 347L285 347L285 370 " stroke="#323232" stroke-width="2" fill="none" marker-end="url(#SvgjsMarker1023)"></path><rect id="SvgjsRect1025" width="13" height="16" x="278.5" y="339" fill="#ffffff"></rect><text id="SvgjsText1026" font-family="Arial" text-anchor="middle" font-size="13px" width="13px" fill="#323232" font-weight="400" align="top" lineHeight="16px" font-style="" opacity="1" y="337.375" transform="rotate(0)"><tspan id="SvgjsTspan1027" dy="16" x="285"><tspan id="SvgjsTspan1028" style="text-decoration:;">是</tspan></tspan></text></g><g id="SvgjsG1029" transform="translate(235,370)"><path id="SvgjsPath1030" d="M0 0L100 0L100 70L0 70Z " stroke="rgba(50,50,50,1)" stroke-width="2" fill-opacity="1" fill="#f5927b"></path><g id="SvgjsG1031"><text id="SvgjsText1032" font-family="Arial" text-anchor="middle" font-size="13px" width="80px" fill="#323232" font-weight="400" align="middle" lineHeight="125%" font-style="" opacity="1" y="25.375" transform="rotate(0)"><tspan id="SvgjsTspan1033" dy="16" x="50"><tspan id="SvgjsTspan1034" style="text-decoration:;">加入死信队列</tspan></tspan></text></g></g><g id="SvgjsG1035"><path id="SvgjsPath1036" d="M232 274L105 274L105 370 " stroke="#323232" stroke-width="2" fill="none" marker-end="url(#SvgjsMarker1037)"></path><rect id="SvgjsRect1039" width="13" height="16" x="114" y="266" fill="#ffffff"></rect><text id="SvgjsText1040" font-family="Arial" text-anchor="middle" font-size="13px" width="13px" fill="#323232" font-weight="400" align="top" lineHeight="16px" font-style="" opacity="1" y="264.375" transform="rotate(0)"><tspan id="SvgjsTspan1041" dy="16" x="120.5"><tspan id="SvgjsTspan1042" style="text-decoration:;">否</tspan></tspan></text></g><g id="SvgjsG1043" transform="translate(55,370)"><path id="SvgjsPath1044" d="M0 0L100 0L100 70L0 70Z " stroke="rgba(50,50,50,1)" stroke-width="2" fill-opacity="1" fill="#f5927b"></path><g id="SvgjsG1045"><text id="SvgjsText1046" font-family="Arial" text-anchor="middle" font-size="13px" width="80px" fill="#323232" font-weight="400" align="middle" lineHeight="125%" font-style="" opacity="1" y="9.375" transform="rotate(0)"><tspan id="SvgjsTspan1047" dy="16" x="50"><tspan id="SvgjsTspan1048" style="text-decoration:;">reconsumeTi</tspan></tspan><tspan id="SvgjsTspan1049" dy="16" x="50"><tspan id="SvgjsTspan1050" style="text-decoration:;">mes加一，加</tspan></tspan><tspan id="SvgjsTspan1051" dy="16" x="50"><tspan id="SvgjsTspan1052" style="text-decoration:;">入重试队列</tspan></tspan></text></g></g><g id="SvgjsG1053"><path id="SvgjsPath1054" d="M285 75L285 94.5L285 94.5L285 114 " stroke="#323232" stroke-width="2" fill="none" marker-end="url(#SvgjsMarker1055)"></path></g><g id="SvgjsG1057" transform="translate(235,114)"><path id="SvgjsPath1058" d="M0 0L100 0L100 70L0 70Z " stroke="rgba(50,50,50,1)" stroke-width="2" fill-opacity="1" fill="#f5927b"></path><g id="SvgjsG1059"><text id="SvgjsText1060" font-family="Arial" text-anchor="middle" font-size="13px" width="80px" fill="#323232" font-weight="400" align="middle" lineHeight="125%" font-style="" opacity="1" y="25.375" transform="rotate(0)"><tspan id="SvgjsTspan1061" dy="16" x="50"><tspan id="SvgjsTspan1062" style="text-decoration:;">消费失败</tspan></tspan></text></g></g><g id="SvgjsG1063"><path id="SvgjsPath1064" d="M285 184L285 204L285 204L285 224 " stroke="#323232" stroke-width="2" fill="none" marker-end="url(#SvgjsMarker1065)"></path></g><g id="SvgjsG1067"><path id="SvgjsPath1068" d="M55 405L25 405L25 50L235 50 " stroke="#323232" stroke-width="2" fill="none" marker-end="url(#SvgjsMarker1069)"></path></g><g id="SvgjsG1071"><path id="SvgjsPath1072" d="M285 440L285 459.5L285 459.5L285 479 " stroke="#323232" stroke-width="2" fill="none" marker-end="url(#SvgjsMarker1073)"></path></g><g id="SvgjsG1075" transform="translate(235,479)"><path id="SvgjsPath1076" d="M16.666666666666668 0L83.33333333333333 0C105.55555555555556 0 105.55555555555556 50 83.33333333333333 50L16.666666666666668 50C-5.555555555555556 50 -5.555555555555556 0 16.666666666666668 0Z " stroke="rgba(50,50,50,1)" stroke-width="2" fill-opacity="1" fill="#f5927b"></path><g id="SvgjsG1077"><text id="SvgjsText1078" font-family="Arial" text-anchor="middle" font-size="13px" width="80px" fill="#323232" font-weight="400" align="middle" lineHeight="125%" font-style="" opacity="1" y="15.375" transform="rotate(0)"><tspan id="SvgjsTspan1079" dy="16" x="50"><tspan id="SvgjsTspan1080" style="text-decoration:;">结束</tspan></tspan></text></g></g></svg>