<svg id="SvgjsSvg1100" xmlns="http://www.w3.org/2000/svg" version="1.1" xmlns:xlink="http://www.w3.org/1999/xlink" xmlns:svgjs="http://svgjs.com/svgjs" width="1072.46875" height="436.359375"><defs id="SvgjsDefs1101"><marker id="SvgjsMarker1161" markerWidth="16" markerHeight="12" refX="16" refY="6" viewBox="0 0 16 12" orient="auto" markerUnits="userSpaceOnUse" stroke-dasharray="0,0"><path id="SvgjsPath1162" d="M0 2L14 6L0 11L0 2 " fill="#323232" stroke="#323232" stroke-width="2"></path></marker><marker id="SvgjsMarker1165" markerWidth="16" markerHeight="12" refX="16" refY="6" viewBox="0 0 16 12" orient="auto" markerUnits="userSpaceOnUse" stroke-dasharray="0,0"><path id="SvgjsPath1166" d="M0 2L14 6L0 11L0 2 " fill="#323232" stroke="#323232" stroke-width="2"></path></marker><marker id="SvgjsMarker1169" markerWidth="16" markerHeight="12" refX="16" refY="6" viewBox="0 0 16 12" orient="auto" markerUnits="userSpaceOnUse" stroke-dasharray="0,0"><path id="SvgjsPath1170" d="M0 2L14 6L0 11L0 2 " fill="#323232" stroke="#323232" stroke-width="2"></path></marker><marker id="SvgjsMarker1189" markerWidth="16" markerHeight="12" refX="16" refY="6" viewBox="0 0 16 12" orient="auto" markerUnits="userSpaceOnUse" stroke-dasharray="0,0"><path id="SvgjsPath1190" d="M0 2L14 6L0 11L0 2 " fill="#323232" stroke="#323232" stroke-width="2"></path></marker><marker id="SvgjsMarker1193" markerWidth="16" markerHeight="12" refX="16" refY="6" viewBox="0 0 16 12" orient="auto" markerUnits="userSpaceOnUse" stroke-dasharray="0,0"><path id="SvgjsPath1194" d="M0 2L14 6L0 11L0 2 " fill="#323232" stroke="#323232" stroke-width="2"></path></marker><marker id="SvgjsMarker1203" markerWidth="16" markerHeight="12" refX="16" refY="6" viewBox="0 0 16 12" orient="auto" markerUnits="userSpaceOnUse" stroke-dasharray="0,0"><path id="SvgjsPath1204" d="M0 2L14 6L0 11L0 2 " fill="#323232" stroke="#323232" stroke-width="2"></path></marker></defs><g id="svgbackgroundid"><defs></defs><rect id="SvgjsRect1103" width="1072.46875" height="436.359375" fill="#ffffff"></rect></g><g id="SvgjsG1105" transform="translate(418.6562499999997,264.3697916666667)"><path id="SvgjsPath1106" d="M0 0L222.99999999999966 0L222.99999999999966 146.99999999999994L0 146.99999999999994Z " stroke="rgba(102,102,102,1)" stroke-width="2" fill-opacity="1" fill="#ffffff"></path><g id="SvgjsG1107"><text id="SvgjsText1108" font-family="Arial" text-anchor="middle" font-size="11px" width="203px" fill="#000000" font-weight="400" align="top" lineHeight="125%" font-style="" opacity="1" y="-1.375" transform="rotate(0)"><tspan id="SvgjsTspan1109" dy="13" x="111.5"><tspan id="SvgjsTspan1110" style="text-decoration:;">消息系统</tspan></tspan></text></g></g><g id="SvgjsG1111" transform="translate(24.989583333333336,25.00868055555526)"><path id="SvgjsPath1112" d="M0 0L304.8333333333333 0L304.8333333333333 324.0000000000001L0 324.0000000000001Z " stroke="rgba(102,102,102,1)" stroke-width="2" fill-opacity="1" fill="#ffffff"></path><g id="SvgjsG1113"><text id="SvgjsText1114" font-family="Arial" text-anchor="middle" font-size="11px" width="285px" fill="#000000" font-weight="400" align="top" lineHeight="125%" font-style="" opacity="1" y="-1.375" transform="rotate(0)"><tspan id="SvgjsTspan1115" dy="13" x="152.5"><tspan id="SvgjsTspan1116" style="text-decoration:;">ServiceA</tspan></tspan></text></g></g><g id="SvgjsG1117" transform="translate(35.6340277777777,59.58791152263356)"><path id="SvgjsPath1118" d="M0 0L123.18888888888897 0L123.18888888888897 39.04535867567311L0 39.04535867567311Z " stroke="rgba(102,102,102,1)" stroke-width="2" fill-opacity="1" fill="#ffffff"></path><g id="SvgjsG1119"><text id="SvgjsText1120" font-family="Arial" text-anchor="middle" font-size="11px" width="104px" fill="#000000" font-weight="400" align="middle" lineHeight="125%" font-style="" opacity="1" y="11.647679337836554" transform="rotate(0)"><tspan id="SvgjsTspan1121" dy="13" x="62"><tspan id="SvgjsTspan1122" style="text-decoration:;">开启事务</tspan></tspan></text></g></g><g id="SvgjsG1123" transform="translate(35.90563714303348,126.49446962158277)"><path id="SvgjsPath1124" d="M0 0L122.64567015837741 0L122.64567015837741 42.58319606553845L0 42.58319606553845Z " stroke="rgba(102,102,102,1)" stroke-width="2" fill-opacity="1" fill="#ffffff"></path><g id="SvgjsG1125"><text id="SvgjsText1126" font-family="Arial" text-anchor="middle" font-size="11px" width="103px" fill="#000000" font-weight="400" align="middle" lineHeight="125%" font-style="" opacity="1" y="13.416598032769226" transform="rotate(0)"><tspan id="SvgjsTspan1127" dy="13" x="61.5"><tspan id="SvgjsTspan1128" style="text-decoration:;">写业务数据</tspan></tspan></text></g></g><g id="SvgjsG1129" transform="translate(36.485778197672715,274.46435008228514)"><path id="SvgjsPath1130" d="M0 0L122.20237702429296 0L122.20237702429296 44.51154644916701L0 44.51154644916701Z " stroke="rgba(102,102,102,1)" stroke-width="2" fill-opacity="1" fill="#ffffff"></path><g id="SvgjsG1131"><text id="SvgjsText1132" font-family="Arial" text-anchor="middle" font-size="11px" width="103px" fill="#000000" font-weight="400" align="middle" lineHeight="125%" font-style="" opacity="1" y="14.380773224583503" transform="rotate(0)"><tspan id="SvgjsTspan1133" dy="13" x="61.5"><tspan id="SvgjsTspan1134" style="text-decoration:;">提交事务</tspan></tspan></text></g></g><g id="SvgjsG1135" transform="translate(758.4710648148153,90.973315329218)"><path id="SvgjsPath1136" d="M0 0L288.68518518518465 0L288.68518518518465 192.07073045267464L0 192.07073045267464Z " stroke="rgba(102,102,102,1)" stroke-width="2" fill-opacity="1" fill="#ffffff"></path><g id="SvgjsG1137"><text id="SvgjsText1138" font-family="Arial" text-anchor="middle" font-size="11px" width="269px" fill="#000000" font-weight="400" align="top" lineHeight="125%" font-style="" opacity="1" y="-1.375" transform="rotate(0)"><tspan id="SvgjsTspan1139" dy="13" x="144.5"><tspan id="SvgjsTspan1140" style="text-decoration:;">ServiceB</tspan></tspan></text></g></g><g id="SvgjsG1141" transform="translate(783.0912637174217,212.223315329218)"><path id="SvgjsPath1142" d="M0 0L88 0L88 38L0 38Z " stroke="rgba(102,102,102,1)" stroke-width="2" fill-opacity="1" fill="#ffffff"></path><g id="SvgjsG1143"><text id="SvgjsText1144" font-family="Arial" text-anchor="middle" font-size="11px" width="68px" fill="#000000" font-weight="400" align="middle" lineHeight="125%" font-style="" opacity="1" y="11.125" transform="rotate(0)"><tspan id="SvgjsTspan1145" dy="13" x="44"><tspan id="SvgjsTspan1146" style="text-decoration:;">执行本地事务</tspan></tspan></text></g></g><g id="SvgjsG1147" transform="translate(36.49602089731834,199.06348730277443)"><path id="SvgjsPath1148" d="M0 0L122.20237702429296 0L122.20237702429296 44.51154644916701L0 44.51154644916701Z " stroke="rgba(102,102,102,1)" stroke-width="2" fill-opacity="1" fill="#ffffff"></path><g id="SvgjsG1149"><text id="SvgjsText1150" font-family="Arial" text-anchor="middle" font-size="11px" width="103px" fill="#000000" font-weight="400" align="middle" lineHeight="125%" font-style="" opacity="1" y="14.380773224583503" transform="rotate(0)"><tspan id="SvgjsTspan1151" dy="13" x="61.5"><tspan id="SvgjsTspan1152" style="text-decoration:;">写事务消息</tspan></tspan></text></g></g><g id="SvgjsG1153" transform="translate(220.48958333333337,166.223315329218)"><path id="SvgjsPath1154" d="M11.749999999999996 0L70.66666666666664 0C80.42424242424241 0 80.42424242424241 46 70.66666666666664 46L11.749999999999996 46C-3.916666666666666 46 -3.916666666666666 0 11.749999999999996 0ZM70.66666666666664 0C61.083333333333314 0 61.083333333333314 46 70.66666666666664 46C61.083333333333314 46 61.083333333333314 0 70.66666666666664 0 " stroke="rgba(50,50,50,1)" stroke-width="2" fill-opacity="1" fill="#ffffff"></path><g id="SvgjsG1155"><text id="SvgjsText1156" font-family="微软雅黑" text-anchor="middle" font-size="13px" width="63px" fill="#323232" font-weight="400" align="middle" lineHeight="125%" font-style="" opacity="1" y="13.375" transform="rotate(0)"><tspan id="SvgjsTspan1157" dy="16" x="31.5"><tspan id="SvgjsTspan1158" style="text-decoration:;">DB-A</tspan></tspan></text></g></g><g id="SvgjsG1159"><path id="SvgjsPath1160" d="M158.5513073014109 147.786067654352C188.35975048833313 147.786067654352 190.79457027215244 191.82129233532555 220.48958333333337 189.223315329218 " stroke="#323232" stroke-width="2" fill="none" marker-end="url(#SvgjsMarker1161)"></path></g><g id="SvgjsG1163"><path id="SvgjsPath1164" d="M158.6983979216113 221.31926052735793C186.5502927734818 221.31926052735793 192.7436733500912 191.65076791196248 220.48958333333337 189.223315329218 " stroke="#323232" stroke-width="2" fill="none" marker-end="url(#SvgjsMarker1165)"></path></g><g id="SvgjsG1167"><path id="SvgjsPath1168" d="M298.8229166666667 189.223315329218C395.7457324481108 197.70296294710585 530.1562499999995 167.07674647469366 530.1562499999995 264.3697916666667 " stroke="#323232" stroke-width="2" fill="none" marker-end="url(#SvgjsMarker1169)"></path><rect id="SvgjsRect1171" width="22" height="16" x="439.83563925137463" y="185.4915294076604" fill="#ffffff"></rect><text id="SvgjsText1172" font-family="微软雅黑" text-anchor="middle" font-size="13px" width="22px" fill="#323232" font-weight="400" align="top" lineHeight="16px" font-style="" opacity="1" y="183.8665294076604" transform="rotate(0)"><tspan id="SvgjsTspan1173" dy="16" x="450.83563925137463"><tspan id="SvgjsTspan1174" style="text-decoration:;">Job</tspan></tspan></text></g><g id="SvgjsG1175" transform="translate(489.6284722222224,319.0146158407636)"><path id="SvgjsPath1176" d="M0 0L88 0L88 38L0 38Z " stroke="rgba(102,102,102,1)" stroke-width="2" fill-opacity="1" fill="#ffffff"></path><g id="SvgjsG1177"><text id="SvgjsText1178" font-family="Arial" text-anchor="middle" font-size="11px" width="68px" fill="#000000" font-weight="400" align="middle" lineHeight="125%" font-style="" opacity="1" y="11.125" transform="rotate(0)"><tspan id="SvgjsTspan1179" dy="13" x="44"><tspan id="SvgjsTspan1180" style="text-decoration:;">事务消息</tspan></tspan></text></g></g><g id="SvgjsG1181" transform="translate(783.100694444445,117.09664351851788)"><path id="SvgjsPath1182" d="M0 0L88 0L88 38L0 38Z " stroke="rgba(102,102,102,1)" stroke-width="2" fill-opacity="1" fill="#ffffff"></path><g id="SvgjsG1183"><text id="SvgjsText1184" font-family="Arial" text-anchor="middle" font-size="11px" width="68px" fill="#000000" font-weight="400" align="middle" lineHeight="125%" font-style="" opacity="1" y="11.125" transform="rotate(0)"><tspan id="SvgjsTspan1185" dy="13" x="44"><tspan id="SvgjsTspan1186" style="text-decoration:;">获取事务消息</tspan></tspan></text></g></g><g id="SvgjsG1187"><path id="SvgjsPath1188" d="M827.100694444445 155.0966435185179C827.100694444445 177.94731255417128 827.0912637174217 189.37264629356463 827.0912637174217 212.223315329218 " stroke="#323232" stroke-width="2" fill="none" marker-end="url(#SvgjsMarker1189)"></path></g><g id="SvgjsG1191"><path id="SvgjsPath1192" d="M641.6562499999993 337.86979166666663C740.2210990510176 337.86979166666663 684.5358453934267 136.09664351851788 783.100694444445 136.09664351851788 " stroke="#323232" stroke-width="2" fill="none" marker-end="url(#SvgjsMarker1193)"></path></g><g id="SvgjsG1195" transform="translate(943.4895833333334,147.223315329218)"><path id="SvgjsPath1196" d="M11.749999999999996 0L70.66666666666664 0C80.42424242424241 0 80.42424242424241 46 70.66666666666664 46L11.749999999999996 46C-3.916666666666666 46 -3.916666666666666 0 11.749999999999996 0ZM70.66666666666664 0C61.083333333333314 0 61.083333333333314 46 70.66666666666664 46C61.083333333333314 46 61.083333333333314 0 70.66666666666664 0 " stroke="rgba(50,50,50,1)" stroke-width="2" fill-opacity="1" fill="#ffffff"></path><g id="SvgjsG1197"><text id="SvgjsText1198" font-family="微软雅黑" text-anchor="middle" font-size="13px" width="63px" fill="#323232" font-weight="400" align="middle" lineHeight="125%" font-style="" opacity="1" y="13.375" transform="rotate(0)"><tspan id="SvgjsTspan1199" dy="16" x="31.5"><tspan id="SvgjsTspan1200" style="text-decoration:;">DB-B</tspan></tspan></text></g></g><g id="SvgjsG1201"><path id="SvgjsPath1202" d="M871.0912637174217 231.223315329218C908.9594914197216 231.223315329218 905.7654556701713 173.52374884114937 943.4895833333334 170.223315329218 " stroke="#323232" stroke-width="2" fill="none" marker-end="url(#SvgjsMarker1203)"></path></g></svg>