<svg id="SvgjsSvg1081" xmlns="http://www.w3.org/2000/svg" version="1.1" xmlns:xlink="http://www.w3.org/1999/xlink" xmlns:svgjs="http://svgjs.com/svgjs" width="363" height="554"><defs id="SvgjsDefs1082"><marker id="SvgjsMarker1099" markerWidth="16" markerHeight="12" refX="16" refY="6" viewBox="0 0 16 12" orient="auto" markerUnits="userSpaceOnUse" stroke-dasharray="0,0"><path id="SvgjsPath1100" d="M0 2L14 6L0 11L0 2 " fill="#323232" stroke="#323232" stroke-width="2"></path></marker><marker id="SvgjsMarker1113" markerWidth="16" markerHeight="12" refX="16" refY="6" viewBox="0 0 16 12" orient="auto" markerUnits="userSpaceOnUse" stroke-dasharray="0,0"><path id="SvgjsPath1114" d="M0 2L14 6L0 11L0 2 " fill="#323232" stroke="#323232" stroke-width="2"></path></marker><marker id="SvgjsMarker1131" markerWidth="16" markerHeight="12" refX="16" refY="6" viewBox="0 0 16 12" orient="auto" markerUnits="userSpaceOnUse" stroke-dasharray="0,0"><path id="SvgjsPath1132" d="M0 2L14 6L0 11L0 2 " fill="#323232" stroke="#323232" stroke-width="2"></path></marker><marker id="SvgjsMarker1141" markerWidth="16" markerHeight="12" refX="16" refY="6" viewBox="0 0 16 12" orient="auto" markerUnits="userSpaceOnUse" stroke-dasharray="0,0"><path id="SvgjsPath1142" d="M0 2L14 6L0 11L0 2 " fill="#323232" stroke="#323232" stroke-width="2"></path></marker><marker id="SvgjsMarker1145" markerWidth="16" markerHeight="12" refX="16" refY="6" viewBox="0 0 16 12" orient="auto" markerUnits="userSpaceOnUse" stroke-dasharray="0,0"><path id="SvgjsPath1146" d="M0 2L14 6L0 11L0 2 " fill="#323232" stroke="#323232" stroke-width="2"></path></marker><marker id="SvgjsMarker1149" markerWidth="16" markerHeight="12" refX="16" refY="6" viewBox="0 0 16 12" orient="auto" markerUnits="userSpaceOnUse" stroke-dasharray="0,0"><path id="SvgjsPath1150" d="M0 2L14 6L0 11L0 2 " fill="#323232" stroke="#323232" stroke-width="2"></path></marker></defs><g id="SvgjsG1083" transform="translate(235,25)"><path id="SvgjsPath1084" d="M16.666666666666668 0L83.33333333333333 0C105.55555555555556 0 105.55555555555556 50 83.33333333333333 50L16.666666666666668 50C-5.555555555555556 50 -5.555555555555556 0 16.666666666666668 0Z " stroke="rgba(50,50,50,1)" stroke-width="2" fill-opacity="1" fill="#f5927b"></path><g id="SvgjsG1085"><text id="SvgjsText1086" font-family="Arial" text-anchor="middle" font-size="13px" width="80px" fill="#323232" font-weight="400" align="middle" lineHeight="125%" font-style="" opacity="1" y="15.375" transform="rotate(0)"><tspan id="SvgjsTspan1087" dy="16" x="50"><tspan id="SvgjsTspan1088" style="text-decoration:;">开始</tspan></tspan></text></g></g><g id="SvgjsG1089" transform="translate(232,224)"><path id="SvgjsPath1090" d="M0 50L53 0L106 50L53 100L0 50Z " stroke="rgba(50,50,50,1)" stroke-width="2" fill-opacity="1" fill="#f5927b"></path><g id="SvgjsG1091"><text id="SvgjsText1092" font-family="Arial" text-anchor="middle" font-size="13px" width="86px" fill="#323232" font-weight="400" align="middle" lineHeight="125%" font-style="" opacity="1" y="32.375" transform="rotate(0)"><tspan id="SvgjsTspan1093" dy="16" x="53"><tspan id="SvgjsTspan1094" style="text-decoration:;">重试次数大于</tspan></tspan><tspan id="SvgjsTspan1095" dy="16" x="53"><tspan id="SvgjsTspan1096" style="text-decoration:;">最大重试次数</tspan></tspan></text></g></g><g id="SvgjsG1097"><path id="SvgjsPath1098" d="M285 324L285 347L285 347L285 370 " stroke="#323232" stroke-width="2" fill="none" marker-end="url(#SvgjsMarker1099)"></path><rect id="SvgjsRect1101" width="13" height="16" x="278.5" y="339" fill="#ffffff"></rect><text id="SvgjsText1102" font-family="Arial" text-anchor="middle" font-size="13px" width="13px" fill="#323232" font-weight="400" align="top" lineHeight="16px" font-style="" opacity="1" y="337.375" transform="rotate(0)"><tspan id="SvgjsTspan1103" dy="16" x="285"><tspan id="SvgjsTspan1104" style="text-decoration:;">是</tspan></tspan></text></g><g id="SvgjsG1105" transform="translate(235,370)"><path id="SvgjsPath1106" d="M0 0L100 0L100 70L0 70Z " stroke="rgba(50,50,50,1)" stroke-width="2" fill-opacity="1" fill="#f5927b"></path><g id="SvgjsG1107"><text id="SvgjsText1108" font-family="Arial" text-anchor="middle" font-size="13px" width="80px" fill="#323232" font-weight="400" align="middle" lineHeight="125%" font-style="" opacity="1" y="25.375" transform="rotate(0)"><tspan id="SvgjsTspan1109" dy="16" x="50"><tspan id="SvgjsTspan1110" style="text-decoration:;">加入死信队列</tspan></tspan></text></g></g><g id="SvgjsG1111"><path id="SvgjsPath1112" d="M232 274L105 274L105 370 " stroke="#323232" stroke-width="2" fill="none" marker-end="url(#SvgjsMarker1113)"></path><rect id="SvgjsRect1115" width="13" height="16" x="114" y="266" fill="#ffffff"></rect><text id="SvgjsText1116" font-family="Arial" text-anchor="middle" font-size="13px" width="13px" fill="#323232" font-weight="400" align="top" lineHeight="16px" font-style="" opacity="1" y="264.375" transform="rotate(0)"><tspan id="SvgjsTspan1117" dy="16" x="120.5"><tspan id="SvgjsTspan1118" style="text-decoration:;">否</tspan></tspan></text></g><g id="SvgjsG1119" transform="translate(55,370)"><path id="SvgjsPath1120" d="M0 0L100 0L100 70L0 70Z " stroke="rgba(50,50,50,1)" stroke-width="2" fill-opacity="1" fill="#f5927b"></path><g id="SvgjsG1121"><text id="SvgjsText1122" font-family="Arial" text-anchor="middle" font-size="13px" width="80px" fill="#323232" font-weight="400" align="middle" lineHeight="125%" font-style="" opacity="1" y="9.375" transform="rotate(0)"><tspan id="SvgjsTspan1123" dy="16" x="50"><tspan id="SvgjsTspan1124" style="text-decoration:;">reconsumeTi</tspan></tspan><tspan id="SvgjsTspan1125" dy="16" x="50"><tspan id="SvgjsTspan1126" style="text-decoration:;">mes加一，加</tspan></tspan><tspan id="SvgjsTspan1127" dy="16" x="50"><tspan id="SvgjsTspan1128" style="text-decoration:;">入重试队列</tspan></tspan></text></g></g><g id="SvgjsG1129"><path id="SvgjsPath1130" d="M285 75L285 94.5L285 94.5L285 114 " stroke="#323232" stroke-width="2" fill="none" marker-end="url(#SvgjsMarker1131)"></path></g><g id="SvgjsG1133" transform="translate(235,114)"><path id="SvgjsPath1134" d="M0 0L100 0L100 70L0 70Z " stroke="rgba(50,50,50,1)" stroke-width="2" fill-opacity="1" fill="#f5927b"></path><g id="SvgjsG1135"><text id="SvgjsText1136" font-family="Arial" text-anchor="middle" font-size="13px" width="80px" fill="#323232" font-weight="400" align="middle" lineHeight="125%" font-style="" opacity="1" y="25.375" transform="rotate(0)"><tspan id="SvgjsTspan1137" dy="16" x="50"><tspan id="SvgjsTspan1138" style="text-decoration:;">消费失败</tspan></tspan></text></g></g><g id="SvgjsG1139"><path id="SvgjsPath1140" d="M285 184L285 204L285 204L285 224 " stroke="#323232" stroke-width="2" fill="none" marker-end="url(#SvgjsMarker1141)"></path></g><g id="SvgjsG1143"><path id="SvgjsPath1144" d="M55 405L25 405L25 50L235 50 " stroke="#323232" stroke-width="2" fill="none" marker-end="url(#SvgjsMarker1145)"></path></g><g id="SvgjsG1147"><path id="SvgjsPath1148" d="M285 440L285 459.5L285 459.5L285 479 " stroke="#323232" stroke-width="2" fill="none" marker-end="url(#SvgjsMarker1149)"></path></g><g id="SvgjsG1151" transform="translate(235,479)"><path id="SvgjsPath1152" d="M16.666666666666668 0L83.33333333333333 0C105.55555555555556 0 105.55555555555556 50 83.33333333333333 50L16.666666666666668 50C-5.555555555555556 50 -5.555555555555556 0 16.666666666666668 0Z " stroke="rgba(50,50,50,1)" stroke-width="2" fill-opacity="1" fill="#f5927b"></path><g id="SvgjsG1153"><text id="SvgjsText1154" font-family="Arial" text-anchor="middle" font-size="13px" width="80px" fill="#323232" font-weight="400" align="middle" lineHeight="125%" font-style="" opacity="1" y="15.375" transform="rotate(0)"><tspan id="SvgjsTspan1155" dy="16" x="50"><tspan id="SvgjsTspan1156" style="text-decoration:;">结束</tspan></tspan></text></g></g></svg>