<svg id="SvgjsSvg1111" xmlns="http://www.w3.org/2000/svg" version="1.1" xmlns:xlink="http://www.w3.org/1999/xlink" xmlns:svgjs="http://svgjs.com/svgjs" width="1137" height="317"><defs id="SvgjsDefs1112"><marker id="SvgjsMarker1141" markerWidth="16" markerHeight="12" refX="16" refY="6" viewBox="0 0 16 12" orient="auto" markerUnits="userSpaceOnUse" stroke-dasharray="0,0"><path id="SvgjsPath1142" d="M0 2L14 6L0 11L0 2 " fill="#323232" stroke="#323232" stroke-width="2"></path></marker><marker id="SvgjsMarker1161" markerWidth="16" markerHeight="12" refX="16" refY="6" viewBox="0 0 16 12" orient="auto" markerUnits="userSpaceOnUse" stroke-dasharray="0,0"><path id="SvgjsPath1162" d="M0 2L14 6L0 11L0 2 " fill="#323232" stroke="#323232" stroke-width="2"></path></marker><marker id="SvgjsMarker1165" markerWidth="16" markerHeight="12" refX="16" refY="6" viewBox="0 0 16 12" orient="auto" markerUnits="userSpaceOnUse" stroke-dasharray="0,0"><path id="SvgjsPath1166" d="M0 2L14 6L0 11L0 2 " fill="#323232" stroke="#323232" stroke-width="2"></path></marker><marker id="SvgjsMarker1177" markerWidth="16" markerHeight="12" refX="16" refY="6" viewBox="0 0 16 12" orient="auto" markerUnits="userSpaceOnUse" stroke-dasharray="0,0"><path id="SvgjsPath1178" d="M0 2L14 6L0 11L0 2 " fill="#323232" stroke="#323232" stroke-width="2"></path></marker><marker id="SvgjsMarker1181" markerWidth="16" markerHeight="12" refX="16" refY="6" viewBox="0 0 16 12" orient="auto" markerUnits="userSpaceOnUse" stroke-dasharray="0,0"><path id="SvgjsPath1182" d="M0 2L14 6L0 11L0 2 " fill="#323232" stroke="#323232" stroke-width="2"></path></marker><marker id="SvgjsMarker1207" markerWidth="16" markerHeight="12" refX="16" refY="6" viewBox="0 0 16 12" orient="auto" markerUnits="userSpaceOnUse" stroke-dasharray="0,0"><path id="SvgjsPath1208" d="M0 2L14 6L0 11L0 2 " fill="#323232" stroke="#323232" stroke-width="2"></path></marker><marker id="SvgjsMarker1211" markerWidth="16" markerHeight="12" refX="16" refY="6" viewBox="0 0 16 12" orient="auto" markerUnits="userSpaceOnUse" stroke-dasharray="0,0"><path id="SvgjsPath1212" d="M0 2L14 6L0 11L0 2 " fill="#323232" stroke="#323232" stroke-width="2"></path></marker><marker id="SvgjsMarker1215" markerWidth="16" markerHeight="12" refX="16" refY="6" viewBox="0 0 16 12" orient="auto" markerUnits="userSpaceOnUse" stroke-dasharray="0,0"><path id="SvgjsPath1216" d="M0 2L14 6L0 11L0 2 " fill="#323232" stroke="#323232" stroke-width="2"></path></marker></defs><g id="SvgjsG1113" transform="translate(25,25)"><path id="SvgjsPath1114" d="M0 4Q0 0 4 0L314.5 0Q318.5 0 318.5 4L318.5 263Q318.5 267 314.5 267L4 267Q0 267 0 263Z " stroke="rgba(50,50,50,1)" stroke-width="2" fill-opacity="1" fill="#ffffff"></path><g id="SvgjsG1115"><text id="SvgjsText1116" font-family="微软雅黑" text-anchor="middle" font-size="13px" width="299px" fill="#323232" font-weight="400" align="top" lineHeight="125%" font-style="" opacity="1" y="-1.625" transform="rotate(0)"><tspan id="SvgjsTspan1117" dy="16" x="159.5"><tspan id="SvgjsTspan1118" style="text-decoration:;">ServiceA</tspan></tspan></text></g></g><g id="SvgjsG1119" transform="translate(35,112)"><path id="SvgjsPath1120" d="M15 0L88.33333333333333 0C103.18181818181819 0 103.18181818181819 70 88.33333333333333 70L15 70C-5 70 -5 0 15 0ZM88.33333333333333 0C73.75 0 73.75 70 88.33333333333333 70C73.75 70 73.75 0 88.33333333333333 0 " stroke="rgba(50,50,50,1)" stroke-width="2" fill-opacity="1" fill="#ffffff"></path><g id="SvgjsG1121"><text id="SvgjsText1122" font-family="微软雅黑" text-anchor="middle" font-size="13px" width="80px" fill="#323232" font-weight="400" align="middle" lineHeight="125%" font-style="" opacity="1" y="25.375" transform="rotate(0)"><tspan id="SvgjsTspan1123" dy="16" x="40"><tspan id="SvgjsTspan1124" style="text-decoration:;">DB-A</tspan></tspan></text></g></g><g id="SvgjsG1125" transform="translate(499.5,58)"><path id="SvgjsPath1126" d="M0 4Q0 0 4 0L113.5 0Q117.5 0 117.5 4L117.5 160Q117.5 164 113.5 164L4 164Q0 164 0 160Z " stroke="rgba(50,50,50,1)" stroke-width="2" fill-opacity="1" fill="#ffffff"></path><g id="SvgjsG1127"><text id="SvgjsText1128" font-family="微软雅黑" text-anchor="middle" font-size="13px" width="98px" fill="#323232" font-weight="400" align="middle" lineHeight="125%" font-style="" opacity="1" y="64.375" transform="rotate(0)"><tspan id="SvgjsTspan1129" dy="16" x="59"><tspan id="SvgjsTspan1130" style="text-decoration:;">RocketMQ</tspan></tspan><tspan id="SvgjsTspan1131" dy="16" x="59"><tspan id="SvgjsTspan1132" style="text-decoration:;">Broker</tspan></tspan></text></g></g><g id="SvgjsG1133" transform="translate(791,53)"><path id="SvgjsPath1134" d="M0 4Q0 0 4 0L317 0Q321 0 321 4L321 160Q321 164 317 164L4 164Q0 164 0 160Z " stroke="rgba(50,50,50,1)" stroke-width="2" fill-opacity="1" fill="#ffffff"></path><g id="SvgjsG1135"><text id="SvgjsText1136" font-family="微软雅黑" text-anchor="middle" font-size="13px" width="301px" fill="#323232" font-weight="400" align="top" lineHeight="125%" font-style="" opacity="1" y="-1.625" transform="rotate(0)"><tspan id="SvgjsTspan1137" dy="16" x="160.5"><tspan id="SvgjsTspan1138" style="text-decoration:;">ServiceB</tspan></tspan></text></g></g><g id="SvgjsG1139"><path id="SvgjsPath1140" d="M314.5 81C388.5339512544417 81 425.4660487455583 86.60465116279067 499.5 86.60465116279067 " stroke="#323232" stroke-width="2" fill="none" marker-end="url(#SvgjsMarker1141)"></path><rect id="SvgjsRect1143" width="65" height="16" x="374.5" y="75.80232558139534" fill="#ffffff"></rect><text id="SvgjsText1144" font-family="微软雅黑" text-anchor="middle" font-size="13px" width="65px" fill="#323232" font-weight="400" align="top" lineHeight="16px" font-style="" opacity="1" y="74.17732558139534" transform="rotate(0)"><tspan id="SvgjsTspan1145" dy="16" x="407"><tspan id="SvgjsTspan1146" style="text-decoration:;">发送半消息</tspan></tspan></text></g><g id="SvgjsG1147" transform="translate(226.5,62)"><path id="SvgjsPath1148" d="M0 0L88 0L88 38L0 38Z " stroke="rgba(102,102,102,1)" stroke-width="2" fill-opacity="1" fill="#ffffff"></path><g id="SvgjsG1149"><text id="SvgjsText1150" font-family="Arial" text-anchor="middle" font-size="11px" width="68px" fill="#000000" font-weight="400" align="middle" lineHeight="125%" font-style="" opacity="1" y="11.125" transform="rotate(0)"><tspan id="SvgjsTspan1151" dy="13" x="44"><tspan id="SvgjsTspan1152" style="text-decoration:;">发送半消息</tspan></tspan></text></g></g><g id="SvgjsG1153" transform="translate(226.5,144)"><path id="SvgjsPath1154" d="M0 0L88 0L88 38L0 38Z " stroke="rgba(102,102,102,1)" stroke-width="2" fill-opacity="1" fill="#ffffff"></path><g id="SvgjsG1155"><text id="SvgjsText1156" font-family="Arial" text-anchor="middle" font-size="11px" width="68px" fill="#000000" font-weight="400" align="middle" lineHeight="125%" font-style="" opacity="1" y="11.125" transform="rotate(0)"><tspan id="SvgjsTspan1157" dy="13" x="44"><tspan id="SvgjsTspan1158" style="text-decoration:;">执行本地事务</tspan></tspan></text></g></g><g id="SvgjsG1159"><path id="SvgjsPath1160" d="M226.5 163C189.34465045245838 163 172.15534954754162 147 135 147 " stroke="#323232" stroke-width="2" fill="none" marker-end="url(#SvgjsMarker1161)"></path></g><g id="SvgjsG1163"><path id="SvgjsPath1164" d="M270.5 100C270.5 117.60000000000002 270.5 126.39999999999998 270.5 144 " stroke="#323232" stroke-width="2" fill="none" marker-end="url(#SvgjsMarker1165)"></path></g><g id="SvgjsG1167" transform="translate(226.5,217)"><path id="SvgjsPath1168" d="M0 0L88 0L88 38L0 38Z " stroke="rgba(102,102,102,1)" stroke-width="2" fill-opacity="1" fill="#ffffff"></path><g id="SvgjsG1169"><text id="SvgjsText1170" font-family="Arial" text-anchor="middle" font-size="11px" width="68px" fill="#000000" font-weight="400" align="middle" lineHeight="125%" font-style="" opacity="1" y="4.625" transform="rotate(0)"><tspan id="SvgjsTspan1171" dy="13" x="44"><tspan id="SvgjsTspan1172" style="text-decoration:;">本地事务提交</tspan></tspan><tspan id="SvgjsTspan1173" dy="13" x="44"><tspan id="SvgjsTspan1174" style="text-decoration:;">或回滚</tspan></tspan></text></g></g><g id="SvgjsG1175"><path id="SvgjsPath1176" d="M270.5 182C270.5 196 270.5 203 270.5 217 " stroke="#323232" stroke-width="2" fill="none" marker-end="url(#SvgjsMarker1177)"></path></g><g id="SvgjsG1179"><path id="SvgjsPath1180" d="M314.5 236C390.5234821825366 236 423.4765178174634 192.4418604651163 499.5 192.4418604651163 " stroke="#323232" stroke-width="2" fill="none" marker-end="url(#SvgjsMarker1181)"></path><rect id="SvgjsRect1183" width="104" height="16" x="355" y="206.22093023255815" fill="#ffffff"></rect><text id="SvgjsText1184" font-family="微软雅黑" text-anchor="middle" font-size="13px" width="104px" fill="#323232" font-weight="400" align="top" lineHeight="16px" font-style="" opacity="1" y="204.59593023255815" transform="rotate(0)"><tspan id="SvgjsTspan1185" dy="16" x="407"><tspan id="SvgjsTspan1186" style="text-decoration:;">提交或回滚半消息</tspan></tspan></text></g><g id="SvgjsG1187" transform="translate(800.5,81)"><path id="SvgjsPath1188" d="M0 0L88 0L88 38L0 38Z " stroke="rgba(102,102,102,1)" stroke-width="2" fill-opacity="1" fill="#ffffff"></path><g id="SvgjsG1189"><text id="SvgjsText1190" font-family="Arial" text-anchor="middle" font-size="11px" width="68px" fill="#000000" font-weight="400" align="middle" lineHeight="125%" font-style="" opacity="1" y="11.125" transform="rotate(0)"><tspan id="SvgjsTspan1191" dy="13" x="44"><tspan id="SvgjsTspan1192" style="text-decoration:;">获取事务消息</tspan></tspan></text></g></g><g id="SvgjsG1193" transform="translate(989,100)"><path id="SvgjsPath1194" d="M15 0L88.33333333333333 0C103.18181818181819 0 103.18181818181819 70 88.33333333333333 70L15 70C-5 70 -5 0 15 0ZM88.33333333333333 0C73.75 0 73.75 70 88.33333333333333 70C73.75 70 73.75 0 88.33333333333333 0 " stroke="rgba(50,50,50,1)" stroke-width="2" fill-opacity="1" fill="#ffffff"></path><g id="SvgjsG1195"><text id="SvgjsText1196" font-family="微软雅黑" text-anchor="middle" font-size="13px" width="80px" fill="#323232" font-weight="400" align="middle" lineHeight="125%" font-style="" opacity="1" y="25.375" transform="rotate(0)"><tspan id="SvgjsTspan1197" dy="16" x="40"><tspan id="SvgjsTspan1198" style="text-decoration:;">DB-B</tspan></tspan></text></g></g><g id="SvgjsG1199" transform="translate(800.5,144)"><path id="SvgjsPath1200" d="M0 0L88 0L88 38L0 38Z " stroke="rgba(102,102,102,1)" stroke-width="2" fill-opacity="1" fill="#ffffff"></path><g id="SvgjsG1201"><text id="SvgjsText1202" font-family="Arial" text-anchor="middle" font-size="11px" width="68px" fill="#000000" font-weight="400" align="middle" lineHeight="125%" font-style="" opacity="1" y="11.125" transform="rotate(0)"><tspan id="SvgjsTspan1203" dy="13" x="44"><tspan id="SvgjsTspan1204" style="text-decoration:;">执行本地事务</tspan></tspan></text></g></g><g id="SvgjsG1205"><path id="SvgjsPath1206" d="M888.5 163C930.2310436006578 163 947.2689563993422 135 989 135 " stroke="#323232" stroke-width="2" fill="none" marker-end="url(#SvgjsMarker1207)"></path></g><g id="SvgjsG1209"><path id="SvgjsPath1210" d="M844.5 119C844.5 129 844.5 134 844.5 144 " stroke="#323232" stroke-width="2" fill="none" marker-end="url(#SvgjsMarker1211)"></path></g><g id="SvgjsG1213"><path id="SvgjsPath1214" d="M617 140C692.1236314351216 140 725.3763685648784 100 800.5 100 " stroke="#323232" stroke-width="2" fill="none" marker-end="url(#SvgjsMarker1215)"></path><rect id="SvgjsRect1217" width="110" height="16" x="653.75" y="112" fill="#ffffff"></rect><text id="SvgjsText1218" font-family="微软雅黑" text-anchor="middle" font-size="13px" width="110px" fill="#323232" font-weight="400" align="top" lineHeight="16px" font-style="" opacity="1" y="110.375" transform="rotate(0)"><tspan id="SvgjsTspan1219" dy="16" x="708.75"><tspan id="SvgjsTspan1220" style="text-decoration:;">commit，投递消息</tspan></tspan></text></g></svg>